<?xml version="1.0" encoding="UTF-8" standalone="no"?>


<svg version="1.1" id="svg1" width="793.70135" height="1122.52" viewBox="0 0 793.70135 1122.52" xmlns:sodipodi-0.dtd="http://sodipodi.sourceforge.net/DTD/sodipodi-0.dtd" sodipodi-0.dtd:docname="PlansB_logo.ps" xmlns:inkscape="http://www.inkscape.org/namespaces/inkscape" xmlns:sodipodi="http://sodipodi.sourceforge.net/DTD/sodipodi-0.dtd" xmlns:xlink="http://www.w3.org/1999/xlink" xmlns="http://www.w3.org/2000/svg" xmlns:svg="http://www.w3.org/2000/svg">
  <defs id="defs1">
    <clipPath clipPathUnits="userSpaceOnUse" id="clipPath1">
      <path d="M 5.01953,0 H 2976.2295 V 4209.19 H 5.01953 Z" transform="matrix(3.3656435e-4,0,0,-2.3714665e-4,-0.00169123,0.99819639)" id="path1"></path>
    </clipPath>
    <clipPath clipPathUnits="userSpaceOnUse" id="clipPath2">
      <path d="M 2973.6,0 H 5952.75 V 4211.69 H 2973.6 Z" transform="matrix(3.3548041e-4,0,0,-2.372817e-4,-0.99758454,0.99935891)" id="path2"></path>
    </clipPath>
    <color-profile xmlns:inkscape="http://www.inkscape.org/namespaces/inkscape" inkscape:label="sRGB IEC61966-2.1" name="sRGB IEC61966-2.1" id="color-profile2"></color-profile>
  </defs>
  <namedview id="namedview1" pagecolor="#ffffff" bordercolor="#000000" borderopacity="0.25" xmlns:inkscape="http://www.inkscape.org/namespaces/inkscape" inkscape:showpageshadow="2" inkscape:pageopacity="0.0" inkscape:pagecheckerboard="0" inkscape:deskcolor="#d1d1d1">
    <page x="0" y="0" inkscape:label="1" id="page1" width="793.70135" height="1122.52" margin="0 0 116.75333 0.66998267" bleed="0"></page>
  </namedview>
  <g id="g1" xmlns:inkscape="http://www.inkscape.org/namespaces/inkscape" inkscape:groupmode="layer" inkscape:label="1">
    <image width="1" height="1" style="image-rendering:optimizeSpeed" preserveAspectRatio="none" transform="matrix(396.16,0,0,562.24,0.66999867,561.29406)" id="image1" clip-path="url(#clipPath1)"></image>
    <image width="1" height="1" style="image-rendering:optimizeSpeed" preserveAspectRatio="none" transform="matrix(397.44,0,0,561.92,396.48,560.96024)" id="image2" clip-path="url(#clipPath2)"></image>
    <path id="path3" d="M 401.809,5770.92 5625.64,6309.48" style="fill:none;stroke:#d8ae00;stroke-width:5;stroke-linecap:butt;stroke-linejoin:miter;stroke-miterlimit:10;stroke-dasharray:none;stroke-opacity:1" transform="matrix(0.13333333,0,0,-0.13333333,0,1122.52)"></path>
    <path id="path4" d="M 1842.45,7542.84 1433.51,5098.79" style="fill:none;stroke:#d8ae00;stroke-width:5;stroke-linecap:butt;stroke-linejoin:miter;stroke-miterlimit:10;stroke-dasharray:none;stroke-opacity:1" transform="matrix(0.13333333,0,0,-0.13333333,0,1122.52)"></path>
    <path id="path5" d="M 2335,7542.84 1926.06,5098.79" style="fill:none;stroke:#d8ae00;stroke-width:5;stroke-linecap:butt;stroke-linejoin:miter;stroke-miterlimit:10;stroke-dasharray:none;stroke-opacity:1" transform="matrix(0.13333333,0,0,-0.13333333,0,1122.52)"></path>
    <path id="path6" d="M 3313.66,7542.84 2904.71,5098.79" style="fill:none;stroke:#d8ae00;stroke-width:5;stroke-linecap:butt;stroke-linejoin:miter;stroke-miterlimit:10;stroke-dasharray:none;stroke-opacity:1" transform="matrix(0.13333333,0,0,-0.13333333,0,1122.52)"></path>
    <path id="path7" d="M 4217.8,7542.84 3808.86,5098.79" style="fill:none;stroke:#d8ae00;stroke-width:5;stroke-linecap:butt;stroke-linejoin:miter;stroke-miterlimit:10;stroke-dasharray:none;stroke-opacity:1" transform="matrix(0.13333333,0,0,-0.13333333,0,1122.52)"></path>
    <path id="path8" d="M 4679.91,7542.84 4270.96,5098.79" style="fill:none;stroke:#d8ae00;stroke-width:5;stroke-linecap:butt;stroke-linejoin:miter;stroke-miterlimit:10;stroke-dasharray:none;stroke-opacity:1" transform="matrix(0.13333333,0,0,-0.13333333,0,1122.52)"></path>
    <path id="path9" d="M 5625.64,6842.35 H 401.809" style="fill:none;stroke:#d8ae00;stroke-width:5;stroke-linecap:butt;stroke-linejoin:miter;stroke-miterlimit:10;stroke-dasharray:none;stroke-opacity:1" transform="matrix(0.13333333,0,0,-0.13333333,0,1122.52)"></path>
    <path id="path10" d="M 5625.64,5714.44 H 401.809" style="fill:none;stroke:#d8ae00;stroke-width:5;stroke-linecap:butt;stroke-linejoin:miter;stroke-miterlimit:10;stroke-dasharray:none;stroke-opacity:1" transform="matrix(0.13333333,0,0,-0.13333333,0,1122.52)"></path>
    <path id="path11" d="M 5625.64,5584.25 H 401.809" style="fill:none;stroke:#d8ae00;stroke-width:5;stroke-linecap:butt;stroke-linejoin:miter;stroke-miterlimit:10;stroke-dasharray:none;stroke-opacity:1" transform="matrix(0.13333333,0,0,-0.13333333,0,1122.52)"></path>
    <path id="path12" d="m 2058.2,5595.45 c 37.3,0 62.23,30.43 62.23,72.05 0,29.06 -15.9,46.92 -45.54,46.92 h -26.5 l -14.72,-118.97 z m -19.63,129.18 h 37.11 c 36.51,0 56.14,-21.79 56.14,-56.95 0,-48.47 -29.45,-82.44 -74.21,-82.44 h -36.12" style="fill:#000000;fill-opacity:1;fill-rule:nonzero;stroke:none" transform="matrix(0.13333333,0,0,-0.13333333,0,1122.52)"></path>
    <path id="path13" d="m 2181.54,5594.26 85.78,119.75 v 0.41 h -67.12 l 1.37,10.21 h 81.26 l -1.17,-9.05 -86.16,-119.54 0.18,-0.59 h 71.85 l -1.17,-10.21 h -86" style="fill:#000000;fill-opacity:1;fill-rule:nonzero;stroke:none" transform="matrix(0.13333333,0,0,-0.13333333,0,1122.52)"></path>
    <path id="path14" d="m 2340.25,5755.45 h 49.27 l -1.18,-8.84 h -49.28 z m 14.71,-30.82 h 10.99 l -17.06,-139.39 h -11.01" style="fill:#000000;fill-opacity:1;fill-rule:nonzero;stroke:none" transform="matrix(0.13333333,0,0,-0.13333333,0,1122.52)"></path>
    <path id="path15" d="m 2430.86,5724.63 h 11.4 l 26.29,-123.49 h 0.21 l 55.94,123.49 h 11.99 l -64.6,-139.39 h -10.41" style="fill:#000000;fill-opacity:1;fill-rule:nonzero;stroke:none" transform="matrix(0.13333333,0,0,-0.13333333,0,1122.52)"></path>
    <path id="path16" d="m 2642.77,5632.75 -17.07,77.92 h -0.41 l -35.93,-77.92 z m -21.59,91.88 h 11.77 l 31.23,-139.39 h -11.38 l -8.07,37.48 h -59.67 l -17.27,-37.48 h -11.39" style="fill:#000000;fill-opacity:1;fill-rule:nonzero;stroke:none" transform="matrix(0.13333333,0,0,-0.13333333,0,1122.52)"></path>
    <path id="path17" d="m 2911.06,5724.63 h 10.99 l 38.1,-96.01 h 0.57 l 61.27,96.01 h 10.8 l -16.9,-139.39 h -10.99 l 14.14,116.02 h -0.59 l -55.76,-86.78 h -8.04 l -35.14,88.15 h -0.41 l -14.12,-117.39 h -11.01" style="fill:#000000;fill-opacity:1;fill-rule:nonzero;stroke:none" transform="matrix(0.13333333,0,0,-0.13333333,0,1122.52)"></path>
    <path id="path18" d="m 3134.7,5755.45 h 49.27 l -1.18,-8.84 h -49.28 z m -38.08,-113.08 10.21,82.26 h 10.99 l -10.21,-82.46 c -3.52,-28.08 5.11,-47.31 29.83,-47.31 23.76,0 39.66,14.32 43.79,46.14 l 10.01,83.63 h 10.99 L 3192.04,5641 c -4.73,-38.67 -23.78,-56.74 -54.99,-56.74 -32.59,0 -44.54,23.37 -40.43,58.11" style="fill:#000000;fill-opacity:1;fill-rule:nonzero;stroke:none" transform="matrix(0.13333333,0,0,-0.13333333,0,1122.52)"></path>
    <path id="path19" d="m 3253.35,5594.26 85.78,119.75 v 0.41 h -67.15 l 1.38,10.21 h 81.28 l -1.19,-9.05 -86.16,-119.54 0.17,-0.59 h 71.88 l -1.2,-10.21 h -85.98" style="fill:#000000;fill-opacity:1;fill-rule:nonzero;stroke:none" transform="matrix(0.13333333,0,0,-0.13333333,0,1122.52)"></path>
    <path id="path20" d="m 3426.75,5724.63 h 11.01 l -17.07,-139.39 h -11.01 z" style="fill:#000000;fill-opacity:1;fill-rule:nonzero;stroke:none" transform="matrix(0.13333333,0,0,-0.13333333,0,1122.52)"></path>
    <path id="path21" d="m 3548.01,5661.01 40.23,-75.77 h -12.75 l -35.54,67.73 -26.69,-29.84 -4.5,-37.89 h -11.01 l 17.07,139.39 h 11.01 l -10.4,-84.43 0.37,-0.18 74.61,84.61 h 13.95" style="fill:#000000;fill-opacity:1;fill-rule:nonzero;stroke:none" transform="matrix(0.13333333,0,0,-0.13333333,0,1122.52)"></path>
    <path id="path22" d="m 3725.94,5632.75 -17.09,77.92 h -0.37 l -35.93,-77.92 z m -21.59,91.88 h 11.79 l 31.2,-139.39 h -11.39 l -8.06,37.48 h -59.68 l -17.27,-37.48 h -11.37" style="fill:#000000;fill-opacity:1;fill-rule:nonzero;stroke:none" transform="matrix(0.13333333,0,0,-0.13333333,0,1122.52)"></path>
    <path id="path23" d="m 2329.45,6396.88 c 7.53,23.91 17.14,44.73 28.76,65.98 4.09,7.48 7.01,15.86 9.72,24.28 14.06,43.68 25.85,86.9 35.51,131.82 1.8,8.33 9.22,45.38 4.51,49.95 l -24.34,-3.46 c -14.06,-16.65 -23.67,-55.27 -28.63,-77.36 l -37.9,-168.63 -17.25,-78.62 c -0.59,-2.66 -0.55,-6.29 -0.37,-9.39 l 14.15,26 c 6.61,12.16 11.42,25.39 15.84,39.43 M 3554.49,6141.2 c 10.09,17.84 15.69,40.53 19.8,60.8 9.14,45.11 19.76,117.63 18.91,163.5 -0.18,9.93 -8.82,22.55 -19.79,22.59 -19.73,0.04 -45.28,-12 -87.43,-10.79 -16.17,0.47 -44.17,5.51 -47.04,24.61 -6.4,42.66 -6.17,24.82 3.94,71.43 l 10.84,50 c 2.34,10.79 6.1,20.79 10.45,31.16 2.48,5.91 7.53,12 13.11,15.27 13.15,7.75 27.28,14.59 42.64,16.73 l 68.87,9.57 c 15.74,2.2 31.49,1.25 47.41,2.13 l 37.46,2.05 c 24.55,1.34 -18.59,-43.75 -25.48,-45.71 -23.65,4.26 -63.3,16.23 -76.23,-11.34 -2.87,-6.14 -5.2,-13.07 -6.94,-19.84 L 3552.32,6474 c -3.22,-12.55 -4.45,-25.21 -4.93,-38.35 -0.21,-5.79 4.3,-10.95 10.01,-11.35 26.73,-1.87 35.8,7.1 55.75,11.15 22.78,4.6 63.67,2.5 78.68,-17.23 11.3,-14.84 12.04,-50.61 10.47,-69.31 -4.58,-54.52 -5.59,-60.36 -22.36,-111.55 -4.39,-13.43 -22.61,-65.43 -31.5,-72.13 l -52.64,-39.62 c -15.16,-11.41 -30.58,-21.46 -47.02,-30.89 -8.17,-4.68 -46.59,-22.41 -57.51,-24.4 -55.58,34.31 -107.2,69.27 -149.38,119.91 -3.52,-3.85 -4.08,-8.21 -5.93,-11.48 -14.62,-25.86 -42.21,-58.55 -56.08,-82.86 l -21.67,-37.96 c -6.97,-12.22 -26.82,-41.02 -40.83,-43.47 -23.86,-4.17 -60.34,-5.99 -83.4,1.49 -16.83,5.48 -3.06,68.39 -3.05,70.09 l 0.23,27.37 c 0.1,11.7 11.63,36.02 11.73,58.91 0.11,23.72 3.29,15.13 8.09,40.36 4.83,25.37 7.44,50.16 9.99,75.96 0.7,7 2.76,13.9 4.37,20.83 5.31,22.84 -1.51,14.46 8.8,48.84 0.63,2.12 0.69,4.71 0.98,9.12 l -3.31,-0.95 c -15.72,-23.25 -27.89,-30.21 -38.66,-55.41 -4.9,-11.46 -9.57,-22.16 -15.14,-33.52 -2.16,-4.4 -7.1,-9.05 -9.96,-13.28 -20.9,-30.89 -39.09,-70.27 -53.37,-104.81 -5.44,-13.16 -10.47,-25.82 -16.74,-38.53 -4.81,-9.73 -9.13,-19.04 -12.69,-29.27 -6.94,-19.96 -15.3,-43.82 -26.62,-61.28 l -45.65,-5.17 c -4.67,-0.53 -33.43,-1.73 -34.51,-0.19 -0.47,0.66 -1.14,3.19 -1.02,4.02 l 7.99,55.09 11.61,73.78 3.85,33.88 13.63,95.3 c 0.94,6.61 1.45,12.93 1.73,19.55 l 0.26,6.36 c -1.14,-0.41 -3.37,-1.05 -3.45,-1.25 -19.17,-44.73 -45.85,-87.77 -71.05,-129.52 l -9.61,-15.92 -37.49,-55.52 c -19.7,-29.18 -37.82,-44.14 -55.61,-68.91 -13.11,-18.25 -26.92,-38.61 -45.49,-51.11 -7.7,-5.18 -17.47,-7.22 -26.56,-6.34 -17.34,1.68 -33.67,4.43 -50.35,8.73 -10.12,2.61 -29.21,8.11 -29.5,19.98 -0.46,18.68 0.17,36.06 3.01,54.2 l 9.02,57.56 c 2.09,13.37 4.33,26 7.95,39.12 l 4.37,15.82 c 3.66,13.25 -21.19,-15.45 -22.48,-17.07 -14.18,-18 -27.02,-35.22 -40.12,-53.79 -7.31,-10.35 -16.46,-18.23 -24.49,-27.89 l -47.41,-57.14 -38.95,-47.16 c -5.56,-6.73 -19.73,-22.83 -28.46,-21.77 -27.53,3.32 -56.61,14.28 -82.11,25.12 -0.58,8.47 -1.33,15.91 -0.52,23.79 l 5.87,56.78 c 0.07,0.67 -0.22,3.22 -0.65,2.88 -0.44,-0.37 -2.56,-1.75 -2.95,-2.3 l -19.48,-26.33 -23.95,-30.12 -4.79,-8.32 -31.03,-36.56 -18.61,-24.94 c -5.48,-7.34 -15.01,-14.43 -24.69,-13.96 -21.69,1.07 -42.05,1 -63.35,-1.24 -7.92,-0.82 -14.54,3.93 -15.78,12.18 -3.9,26.13 -4.07,51.45 -3.18,78.02 1.33,39.52 2.77,77.68 7.88,116.82 l 6.01,46.04 c 1.22,9.32 2.57,17.41 4.67,26.59 6.6,28.85 9.99,57.75 13.68,87.23 1.82,14.52 4.19,27.98 7.6,42.07 7.41,30.61 0.86,25.98 12.96,66.54 l 13.15,44.09 c 3.73,12.51 3.74,24.83 5.08,37.71 0.86,8.34 4.29,17.59 6.57,25.93 l 15.19,55.67 c 8.83,32.35 20.46,73.18 52.33,90.81 16.64,9.21 16.15,11.84 34.54,17.05 23.17,6.58 15.5,13.97 57.43,22.95 20.49,4.38 39.87,7.18 61.02,9.68 3.35,0.39 9.54,-3.39 10.04,-6.34 l 2.3,-13.81 c -4.73,-10.87 -8.44,-20.6 -11.45,-31.76 -4.23,-15.74 -8.97,-30.56 -15.06,-45.7 -9.46,-23.52 -18.47,-46.34 -29.54,-69.19 -7.68,-15.84 -14.3,-31.01 -19.77,-47.75 -5.18,-15.85 -11.37,-30.72 -19.5,-45.29 l -30.58,-54.91 -27.16,-50.09 c -10.74,-19.8 -21.98,-38.23 -29.96,-59.43 -23.02,-61.21 -10.1,-65.02 -16.95,-104.23 -2.81,-16.05 -4.51,-31.29 -4.61,-47.47 -0.09,-12.89 -1.1,-24.67 -4.15,-37.69 -0.53,-2.24 2.08,-7.59 2.05,-9.93 l -1.12,-84.59 -0.12,-14.59 7.92,-6.23 c -0.6,-0.59 0.62,0.59 1.48,1.43 5.92,9.26 11.38,18.3 18.24,26.87 l 29.17,36.38 c 4.3,5.37 7.46,12.55 12.01,17.77 l 15.91,18.28 c 3.23,3.71 6.08,8.27 9.33,12.43 5.53,7.09 15.8,14.03 17.93,23.23 l 7.52,32.36 c 8.53,36.77 22.31,70.96 41.01,103.86 10.73,18.89 21.29,36.39 33.82,53.98 l 47.19,66.3 c 2.68,3.77 10.02,7.34 13.25,11.02 7.25,8.23 15.34,13.84 24.13,20.41 27.12,20.28 49.87,67.84 101.87,57.98 l 19.96,-3.8 c 13.72,-2.59 36.28,3.55 45.88,-6.02 0.87,-0.87 -1.35,-4.2 -2.45,-4.96 l -24.83,-17.42 c -10.02,-7.01 -19.43,-13.64 -28.69,-21.6 -23.44,-20.14 -43.1,-42.52 -60.91,-67.8 -16.87,-23.95 -32.65,-46.7 -47.69,-71.97 -40.7,-68.36 -56.93,-128 -68.28,-206.13 -2.23,-15.37 -2.47,-30.19 0.53,-45.94 l 21.84,30.71 10.14,10.04 23.71,34.75 52.52,74.27 c 12.67,17.91 24.42,35.32 35.08,54.37 l 15.29,27.32 c 5.4,9.66 11.54,18.33 16.37,28.24 l 16.02,32.87 c 2.86,5.86 8.09,11.18 10.7,17.18 l 17.19,39.45 c -1.68,-3.85 21.01,36.9 20.31,35.87 4.37,6.48 12.53,11 20.6,11.95 21.38,2.53 42.44,3.8 63.8,4.43 1.87,0.05 5.47,-3.91 4.89,-5.67 l -8.87,-26.96 c -7.38,-22.46 -14.67,-43.8 -19.78,-67.05 l -16.62,-75.7 c -4.45,-20.22 -10.21,-39.25 -12.6,-59.93 l -8.71,-75.5 c -2.8,-24.19 -8.33,-39.32 -7.2,-63.12 l 3.41,0.69 17.12,16.59 c 6.93,6.72 10.52,15.81 17.12,22.99 l 16.97,18.46 11.9,17.94 42.15,53.75 c 21.62,27.56 37.95,57.9 51.12,90.26 l 19.59,48.17 c 7,17.22 14.29,33.58 22.57,50.33 6.38,12.94 13.44,25.19 18.16,38.76 l 13.66,39.36 c 3.38,9.72 7.92,18 13.31,27.23 l 21.59,2.13 c 8.35,0.82 17.02,0.57 25.2,3.02 5.44,1.64 28.12,7.46 28.79,-2.91 1,-15.45 1.52,-35.79 -0.76,-52.56 l -9.44,-69.44 -4.66,-46.06 -3.2,-17.77 -1.96,-19.07 c -1.25,-12.21 -4.66,-23.73 -5.16,-35.96 -1.16,-28.09 -3.44,-28.34 -5.83,-53.02 l -1.48,-15.3 -0.82,-7.88 c -0.4,-1.41 0.47,-0.8 2.25,1 16.24,27.11 19.19,47.34 34.76,75.54 l 28.08,50.91 c 7.43,13.46 14.73,27.69 18.45,42.39 1.77,7 1.9,13.54 6.12,19.88 4.72,7.08 10.85,14.33 14.09,21.87 3.03,7.07 4.73,14.45 9.23,20.36 l 16.06,21.07 c 4.08,5.36 4.83,12.41 7.36,18.5 7.79,18.77 17.5,36.27 27.65,53.89 6.04,10.5 13.04,20.09 21.12,28.84 5.88,6.37 13.14,7.36 21.33,7.09 15.94,-0.55 30.22,9.02 57.5,11.18 2.2,0.18 18.75,0.11 16.64,-6.79 l -3.19,-10.39 -29.26,-121.87 -16.92,-83.35 -4.54,-41.74 -11,-55.41 -3.82,-26.04 -1.66,-25.61 c -0.05,-0.73 -0.36,-1.87 -0.54,-2.68 l -0.58,-2.64 -0.59,-2.63 -0.54,-2.42 -0.53,-2.32 -0.71,-2.93 c -1.2,-5 -8.73,-44.31 -4.72,-45.07 2.63,-0.5 11.57,7.71 12.7,9.23 l 56.9,76.91 27.47,39.25 c 2.81,4.02 9.94,14.43 14.76,21.87 6.97,10.74 12.08,16.41 23.3,31.91 l 12.65,19.04 c 5.88,5.57 19.84,19 26.71,11.43 5.32,-5.88 10.12,-11.13 13.76,-17.59 l 22.03,-39.16 c 17.66,-31.39 51.28,-72.09 81.19,-92.25 8.26,-5.57 29.21,-15.25 35.49,-4.16" style="fill:#000000;fill-opacity:1;fill-rule:nonzero;stroke:none" transform="matrix(0.13333333,0,0,-0.13333333,0,1122.52)"></path>
    <path id="path24" d="m 4541.5,6801.03 c -0.66,6.2 -3.51,13.55 -7.43,17.73 -11.64,12.44 -41.87,10.84 -58.18,9.42 l -53.89,-4.69 c -13.06,-1.14 -24.35,-6.56 -32.64,-17 -28.68,-36.12 -67.33,-90.11 -86.78,-131.64 l -14.74,-31.47 -14.01,-19.17 c -15.38,-21.04 -52.08,-115.16 -62.64,-144.22 -8.76,-24.12 -13.97,-31.15 -23.35,-54 -7.4,-18.03 -9.61,-16.26 -17.56,-39.92 l -17.1,-50.85 c -3.13,-9.3 -8,-20.09 -12.35,-28.69 -0.39,-0.78 -4.22,-1.72 -4.23,-0.63 -0.14,9.72 0.29,23.01 2.59,32.59 l 7.84,32.67 c 3.45,14.37 6.27,28.4 8.77,43.04 l 12.1,70.99 28.61,153.82 c 4.84,26.03 4.25,49.94 7,64.45 l 1.76,9.29 c 0.27,1.41 -3.58,4.73 -5.48,4.4 l -71.93,-12.51 c -16.62,-2.89 -6.94,-7.86 -37.7,-11.86 -8.29,-1.07 -15.14,-6.04 -23.46,-6.83 l -17.17,-1.64 c -8.27,-0.79 -15.44,-5.2 -23.34,-6.97 l -11.58,-2.61 c -0.73,-0.16 -1.58,-0.36 -2.37,-0.54 -0.1,-0.96 -0.25,-2.15 -0.26,-2.36 -0.14,-2.27 -0.13,-4.53 -0.24,-6.79 -0.01,-0.14 -0.02,-0.18 -0.03,-0.28 0.05,-0.25 0.26,-0.99 0.44,-1.69 0.36,-0.22 0.78,-0.49 1.18,-0.74 0.3,-0.12 0.64,-0.28 0.82,-0.43 0.06,-0.02 0.09,-0.03 0.16,-0.06 1.86,-0.72 3.76,-1.31 5.66,-1.91 9.49,-3.02 18.57,-7.35 23.54,-15.92 1.81,-2.35 2.97,-5.22 3.2,-8.38 0.02,-0.25 0.02,-0.5 0.04,-0.76 1.55,-7.14 1.37,-14.64 0.96,-21.95 0.97,-45.57 -4.45,-92.52 -10.09,-137.38 l -10.46,-83.13 c -2.79,-22.25 -5.11,-43.62 -9.13,-65.6 l -8.4,-46.05 -20.54,-127.92 -2.83,-26.05 -6.52,-31.72 c -2.97,-14.5 -46.07,-275.97 -50.79,-290.19 -1.24,-3.72 -1.17,-8.52 -0.11,-12.49 20.88,4.07 36.38,12.1 59.38,17.68 l 44.78,19.28 c 2.22,0.08 7.31,2.61 8.45,4.85 4.45,8.76 45.25,235.81 48.14,245.41 l 20.56,68.37 15.8,44.56 c 5.09,14.35 9.13,28.37 15.15,42.19 l 14.34,32.86 c 6.42,14.73 11.58,29.1 16.2,44.5 2.95,9.84 7.86,19.03 11.66,28.65 l 15.89,40.25 c 2.22,5.64 4.75,11.55 7.53,16.95 l 29.75,57.71 44.77,90.45 c 31.35,63.34 50.37,95.78 90.21,153.81 13.65,19.88 6.29,2.42 20.44,23.38 l 8.55,12.66 c 0.4,0.59 2.12,2.14 2.61,2.59 2.21,2.02 7.86,-26.46 8.09,-33.77 l 0.11,-3.34 0.11,-3.34 -0.12,-35.86 -1.55,-20.6 -0.1,-34.9 c -0.02,-6.96 -3.44,-14.18 -4.2,-21.12 l -5.79,-53.25 c -0.44,-4.09 1.02,-11.22 0.2,-14.85 l -5.42,-23.97 c -5.36,-23.68 -14.93,-45.1 -30.08,-63.86 -9.58,-11.88 -21,-20.28 -34.61,-27.2 -21.9,-11.12 -43.1,-21.67 -65.8,-30.93 l -54.84,-22.35 c -7.86,-3.2 -22.29,-10.89 -25.98,-18.4 -0.56,-1.14 1.87,-5.33 3.57,-5.16 l 53.96,5.55 c 13.73,1.41 25.99,1.36 38.81,-0.34 27.54,-3.63 30.56,-32.65 33.58,-55.75 1.8,-13.75 1.21,-26.66 0.63,-40.36 -0.63,-14.77 -0.03,-29.27 0.12,-44.1 0.16,-15.33 -0.25,-29.98 -1.39,-45.3 -0.61,-8.14 -4.38,-16.35 -5.75,-24.17 l -7.71,-44.11 c -1.91,-10.94 -3.64,-21.34 -4.59,-32.41 -1.43,-16.55 -32.53,-136.62 -38.16,-152.38 -7.43,-20.84 -20.01,-40.97 -39.08,-52.92 l -38.53,-24.13 c -12.18,-7.62 -23.68,-15.77 -36.51,-22.14 -16.49,-8.18 -32.7,-15.1 -49.74,-22.26 -22.66,-9.52 -43.68,-19.99 -65.79,-30.72 -11.61,-5.64 -24.08,-9.15 -36.14,-13.72 -20.58,-7.8 -40.09,-15.42 -60.26,-24.43 -2.68,-1.2 -29.78,-14.03 -26.78,-16.89 5.59,-5.33 9.86,-2.1 14.91,-0.98 27.25,6.08 53.1,13.23 79.74,21.92 l 67.08,21.89 c 32.12,10.48 63.22,19.52 94.19,33.24 l 84.26,37.34 c 9.04,4.01 19.03,6.21 27.8,10.69 l 59.14,30.21 31.54,17.41 c 1.91,1.06 5.16,5.12 5.99,7.43 l 50.22,163.92 c 3.31,9.25 4.82,19.5 6.44,29.09 l 11.8,69.91 c 13.3,78.76 21.07,147.84 16.39,228.16 -0.42,7.25 -3.18,13.11 -8.58,16.95 -5.41,3.84 -11.67,3.26 -18.81,1.14 -5.13,-1.52 -11.56,-0.77 -17.29,-0.82 -26.82,-0.23 -53.43,-9.82 -77.96,-12.29 l -44.1,-4.45 -2.93,1.62 c 10.25,3.14 16.15,4.87 24.76,7.01 7.9,1.96 14.28,6.75 21.65,9.92 47.06,20.28 93.41,39.28 139.08,63.03 14.16,7.36 27.39,17.05 39.38,25.8 15.63,11.41 30.99,145.35 33.61,170.56 5.84,56.06 5.85,111.07 -0.12,167.27" style="fill:#000000;fill-opacity:1;fill-rule:nonzero;stroke:none" transform="matrix(0.13333333,0,0,-0.13333333,0,1122.52)"></path>
    <path id="path25" d="m 2151.5,6840.53 c -10.16,4.68 -36.89,-0.98 -47.7,-2.56 -2.96,-2.83 -5.35,-3.15 -9.14,-3 -30.84,1.17 -30.55,-6.34 -41.16,-7.9 -13.95,-2.04 -26.3,-6.89 -36.64,-16.84 -9.4,-9.05 -17.79,-19.53 -24.25,-31.33 l -35.2,-64.31 -44.61,-93.66 -23.35,-49.69 c -7.57,-16.13 -13.18,-32.85 -19.49,-49.73 -6.48,-17.38 -14.41,-32.54 -23.1,-48.68 -12.38,-23.01 -20.86,-47.3 -29.93,-72.09 -2.47,-6.75 -2.72,-16.1 -5.64,-22.09 -15.93,-32.68 -31.11,-63.98 -41.74,-99.1 -6.75,-22.28 -14.87,-44.59 -23.69,-65.45 -0.7,-1.69 -5.47,-2.98 -5.47,-1.65 -0.03,28.99 7.38,43.69 11.04,69.98 l 6.46,46.21 15.99,111.89 c 1.33,9.3 3.71,18.03 5.66,27.19 2.92,13.88 4.73,27.48 6.26,41.6 l 4.09,37.83 c 0.79,7.28 1.54,14.67 2.93,21.84 l 9.97,51.22 c 4.25,21.87 5.57,43.1 7.78,65.59 0.32,3.16 -3.3,8.82 -5.75,8.35 l -62.14,-11.93 c -9.97,-1.91 -20.11,-3.87 -29.32,-7.36 -3.97,-1.5 -7.68,-3.21 -11.88,-4 -23.37,-4.42 -48.52,-9.74 -73.55,-15.97 -1.43,-0.59 -2.95,-0.96 -4.52,-1.1 -0.55,-0.14 -1.07,-0.29 -1.61,-0.42 -0.07,-0.05 -0.16,-0.11 -0.25,-0.18 -0.46,-0.45 -0.87,-0.94 -1.28,-1.44 0.28,0.07 -1.02,-2.41 -1.25,-2.53 -0.48,-1.39 -0.86,-2.85 -1.11,-4.31 0.05,-0.36 -0.03,-2.16 -0.07,-3.28 0.05,-0.16 0.09,-0.39 0.14,-0.64 0.02,-0.03 0.02,-0.03 0.04,-0.06 0.03,-0.05 0.03,-0.02 0.07,-0.07 0.16,-0.17 0.12,-0.13 0.25,-0.25 1.07,-0.73 2.18,-1.36 3.32,-1.95 0.57,-0.17 3.13,-1.21 3.52,-1.35 1.73,-0.6 3.5,-1.14 5.23,-1.7 4.16,-1.34 8.2,-2.87 12.16,-4.77 4.22,-2.03 8.68,-3.84 12.14,-7.19 1.29,-1.25 2.31,-2.6 3.2,-4.02 2.63,-2.27 4.66,-5.32 5.18,-8.31 0.39,-2.23 0.68,-4.28 0.73,-6.34 0.02,-0.39 0.2,-0.67 0.2,-1.08 -0.54,-33.34 -6.02,-60.57 -4.56,-88.5 0.47,-8.74 0.93,-17.12 -0.75,-25.71 -7.07,-36.25 -13.25,-71.47 -18.05,-108.23 -3.16,-24.17 -4,-47.13 -4.32,-71.5 -0.45,-34.14 -11.21,-64.09 -14.3,-93.86 l -5.08,-48.75 c -1.8,-17.38 -4.55,-33.83 -8.01,-50.95 -5.5,-27.11 -9.59,-53.35 -13.29,-80.81 l -9.23,-68.63 c -3.16,-23.39 -22.02,-111.59 -29.34,-133.82 -1.13,-3.44 -0.34,-9.11 -1.11,-12 l -11.27,-42.2 c -2.03,-7.58 -5.91,-39.5 -1.14,-41.17 4.27,-1.49 29.29,7.73 35.91,10.24 13.4,5.09 25.93,9.03 39.75,12.5 17.98,4.51 36.16,10.23 40.88,32.4 l 26.14,125.08 9.68,41.57 11.41,44.33 c 5,19.42 11.37,37.93 14.75,57.8 l 5.98,35.11 c 1.98,11.55 6.11,22.27 10.93,32.71 3.54,18.03 7.71,35.49 14.79,52.4 l 23.05,55.11 c 3.07,7.38 3.45,17.33 7.11,24.16 3.3,6.17 7.25,11.86 9.32,18.16 l 9.19,27.89 c 2.9,8.81 7.72,16.8 13.59,23.95 l 20.34,52.74 c 5.61,14.55 9.93,29.89 17.9,43.27 15.21,25.58 30.39,49.81 43.23,76.81 4.05,8.5 6.52,17.21 9.59,26.13 9.6,27.93 54.46,107.87 70.96,129.32 l 13.7,17.8 21.93,35.34 c 1.68,2.71 7.25,5.29 10.8,6.83 2.41,-11.92 3.29,-22.34 2.82,-34.13 -0.73,-19.06 -1.52,-37.43 -1.05,-56.61 0.23,-8.99 2.53,-18.3 1.62,-27.07 l -4.09,-39.71 -7.37,-108.82 c -3.18,-46.92 -1.41,-40.44 -8.18,-86.97 -6.8,-46.75 -1.39,-18.03 -15.02,-62.71 -3.64,-11.91 -10.69,-20.57 -20.41,-26.77 -12.98,-8.3 -24.55,-17.75 -35.66,-28.66 -11.96,-11.76 -21.66,-21.14 -38.82,-23.44 -14.64,-5.46 -137.27,-59.71 -133.54,-71.65 1.97,-6.28 42.79,6.34 49.18,8.77 l 39.23,14.9 c 27.18,10.33 53.34,20.44 80.97,29.11 22.98,7.22 26.55,15.1 57.86,25.29 36.12,11.76 69.42,38.36 88.26,45.53 l 11.83,4.5 c 7.12,7.29 13.37,12.83 21.89,17.94 17.11,48.78 16.03,41.08 22.85,92.8 l 3.52,23.83 14.07,137.3 c 3.5,34.09 5.81,66.46 6.2,100.56 l 1.07,91.79 c 0.31,26.94 -2.44,70.3 -10.23,95.33" style="fill:#000000;fill-opacity:1;fill-rule:nonzero;stroke:none" transform="matrix(0.13333333,0,0,-0.13333333,0,1122.52)"></path>
    <path id="path26" d="m 1737.25,6013.48 c -0.08,0.61 -0.64,1.03 -1.25,0.94 -0.6,-0.08 -1.03,-0.63 -0.94,-1.25 0.08,-0.6 0.64,-1.02 1.25,-0.94 0.6,0.09 1.02,0.65 0.94,1.25" style="fill:#000000;fill-opacity:1;fill-rule:nonzero;stroke:none" transform="matrix(0.13333333,0,0,-0.13333333,0,1122.52)"></path>
    <path id="path27" d="m 2678.86,6518.05 c -24.03,-3.07 -46.65,-2.23 -69.24,0.26 l -14.06,31.47 c -5.09,11.41 -10.58,26.71 -10.09,38.52 l -6.63,8.54 c 15.14,2.21 28.76,3.38 43.72,3.19 l 30.39,-0.39 c 16.01,-0.2 31.37,1.77 46.77,5.95 14.98,4.07 29.6,7.02 45.14,9.16 11.15,1.54 22.24,3.36 32.77,6.76 l 31.85,10.27 c 14.43,4.65 32.21,11.43 38.24,0.32 l 8.22,-15.13 27.53,-60.33 c 0.75,-1.65 -0.6,-5.89 -2.15,-6.63 -46.77,-22.29 -48.2,-12.06 -65.19,-16.37 l -34.95,-8.85 c -54.8,-13.88 -64.17,-1.87 -102.32,-6.74" style="fill:#000000;fill-opacity:1;fill-rule:nonzero;stroke:none" transform="matrix(0.13333333,0,0,-0.13333333,0,1122.52)"></path>
    <path id="path28" d="m 1737.25,6013.48 c 0.08,-0.6 -0.34,-1.16 -0.94,-1.25 -0.61,-0.08 -1.17,0.34 -1.25,0.94 -0.09,0.62 0.34,1.17 0.94,1.25 0.61,0.09 1.17,-0.33 1.25,-0.94" style="fill:#000000;fill-opacity:1;fill-rule:nonzero;stroke:none" transform="matrix(0.13333333,0,0,-0.13333333,0,1122.52)"></path>
    <path id="path29" d="m 876.633,2013.17 c 25.301,0 42.211,20.64 42.211,48.87 0,19.71 -10.789,31.83 -30.891,31.83 h -17.98 l -9.981,-80.7 z m -13.32,87.62 h 25.171 c 24.77,0 38.079,-14.78 38.079,-38.62 0,-32.89 -19.969,-55.93 -50.329,-55.93 h -24.5" style="fill:#000000;fill-opacity:1;fill-rule:nonzero;stroke:none" transform="matrix(0.13333333,0,0,-0.13333333,0,1122.52)"></path>
    <path id="path30" d="m 960.297,2012.36 58.183,81.23 v 0.27 h -45.527 l 0.934,6.94 H 1029 l -0.79,-6.14 -58.444,-81.09 0.121,-0.39 h 48.723 l -0.79,-6.93 h -58.324" style="fill:#000000;fill-opacity:1;fill-rule:nonzero;stroke:none" transform="matrix(0.13333333,0,0,-0.13333333,0,1122.52)"></path>
    <path id="path31" d="m 1067.95,2121.7 h 33.42 l -0.8,-6 h -33.43 z m 9.98,-20.9 h 7.45 l -11.57,-94.55 h -7.47" style="fill:#000000;fill-opacity:1;fill-rule:nonzero;stroke:none" transform="matrix(0.13333333,0,0,-0.13333333,0,1122.52)"></path>
    <path id="path32" d="m 1129.41,2100.79 h 7.73 l 17.84,-83.77 h 0.14 l 37.94,83.77 h 8.14 l -43.82,-94.55 h -7.07" style="fill:#000000;fill-opacity:1;fill-rule:nonzero;stroke:none" transform="matrix(0.13333333,0,0,-0.13333333,0,1122.52)"></path>
    <path id="path33" d="m 1273.15,2038.47 -11.58,52.86 h -0.27 l -24.38,-52.86 z m -14.64,62.32 h 7.98 l 21.18,-94.55 h -7.72 l -5.47,25.43 h -40.47 l -11.72,-25.43 h -7.73" style="fill:#000000;fill-opacity:1;fill-rule:nonzero;stroke:none" transform="matrix(0.13333333,0,0,-0.13333333,0,1122.52)"></path>
    <path id="path34" d="m 1455.13,2100.79 h 7.46 l 25.84,-65.13 h 0.39 l 41.56,65.13 h 7.32 l -11.46,-94.55 h -7.45 l 9.59,78.71 h -0.41 l -37.82,-58.88 h -5.45 l -23.84,59.81 h -0.27 l -9.57,-79.64 h -7.48" style="fill:#000000;fill-opacity:1;fill-rule:nonzero;stroke:none" transform="matrix(0.13333333,0,0,-0.13333333,0,1122.52)"></path>
    <path id="path35" d="m 1606.83,2121.7 h 33.42 l -0.8,-6 h -33.42 z M 1581,2045 l 6.93,55.8 h 7.45 l -6.93,-55.94 c -2.38,-19.04 3.47,-32.09 20.24,-32.09 16.11,0 26.9,9.72 29.7,31.3 l 6.79,56.73 h 7.45 l -6.91,-56.73 c -3.2,-26.23 -16.13,-38.49 -37.29,-38.49 -22.11,0 -30.22,15.85 -27.43,39.42" style="fill:#000000;fill-opacity:1;fill-rule:nonzero;stroke:none" transform="matrix(0.13333333,0,0,-0.13333333,0,1122.52)"></path>
    <path id="path36" d="m 1687.3,2012.36 58.2,81.23 v 0.27 h -45.55 l 0.93,6.94 h 55.14 l -0.81,-6.14 -58.45,-81.09 0.13,-0.39 h 48.74 l -0.81,-6.93 h -58.32" style="fill:#000000;fill-opacity:1;fill-rule:nonzero;stroke:none" transform="matrix(0.13333333,0,0,-0.13333333,0,1122.52)"></path>
    <path id="path37" d="m 1804.93,2100.79 h 7.46 l -11.57,-94.55 h -7.48 z" style="fill:#000000;fill-opacity:1;fill-rule:nonzero;stroke:none" transform="matrix(0.13333333,0,0,-0.13333333,0,1122.52)"></path>
    <path id="path38" d="m 1887.18,2057.64 27.29,-51.4 h -8.65 l -24.11,45.95 -18.1,-20.24 -3.05,-25.71 h -7.47 l 11.58,94.55 h 7.46 l -7.05,-57.27 0.25,-0.12 50.61,57.39 h 9.47" style="fill:#000000;fill-opacity:1;fill-rule:nonzero;stroke:none" transform="matrix(0.13333333,0,0,-0.13333333,0,1122.52)"></path>
    <path id="path39" d="m 2007.87,2038.47 -11.59,52.86 h -0.25 l -24.37,-52.86 z m -14.64,62.32 h 7.98 l 21.18,-94.55 h -7.73 l -5.46,25.43 h -40.49 L 1957,2006.24 h -7.72" style="fill:#000000;fill-opacity:1;fill-rule:nonzero;stroke:none" transform="matrix(0.13333333,0,0,-0.13333333,0,1122.52)"></path>
    <path id="path40" d="m 1060.63,2556.78 c 5.1,16.22 11.61,30.34 19.5,44.76 2.77,5.07 4.75,10.76 6.59,16.47 9.54,29.63 17.53,58.94 24.09,89.42 1.22,5.65 6.25,30.78 3.07,33.88 l -16.52,-2.35 c -9.54,-11.29 -16.06,-37.49 -19.42,-52.47 l -25.71,-114.39 -11.7,-53.33 c -0.4,-1.8 -0.38,-4.27 -0.25,-6.37 l 9.6,17.64 c 4.48,8.25 7.75,17.22 10.75,26.74 m 830.94,-173.42 c 6.84,12.1 10.64,27.49 13.43,41.24 6.2,30.59 13.41,79.78 12.83,110.89 -0.13,6.74 -5.99,15.31 -13.43,15.33 -13.38,0.03 -30.71,-8.13 -59.3,-7.31 -10.97,0.31 -29.96,3.73 -31.9,16.69 -4.35,28.93 -4.19,16.84 2.66,48.45 l 7.36,33.92 c 1.58,7.31 4.14,14.09 7.09,21.13 1.68,4.01 5.11,8.13 8.89,10.36 8.93,5.25 18.5,9.89 28.93,11.34 l 46.7,6.5 c 10.68,1.48 21.37,0.84 32.17,1.44 l 25.4,1.39 c 16.65,0.91 -12.61,-29.68 -17.27,-31 -16.05,2.88 -42.95,11 -51.72,-7.7 -1.95,-4.16 -3.52,-8.86 -4.7,-13.46 l -8.61,-33.48 c -2.19,-8.51 -3.02,-17.09 -3.34,-26 -0.15,-3.93 2.91,-7.43 6.78,-7.7 18.14,-1.28 24.28,4.81 37.82,7.55 15.45,3.13 43.19,1.7 53.37,-11.68 7.66,-10.07 8.16,-34.33 7.1,-47.01 -3.11,-36.98 -3.79,-40.95 -15.16,-75.67 -2.99,-9.11 -15.34,-44.38 -21.37,-48.92 l -35.71,-26.88 c -10.28,-7.74 -20.74,-14.55 -31.89,-20.95 -5.54,-3.17 -31.6,-15.2 -39.01,-16.55 -37.7,23.27 -72.71,46.99 -101.33,81.34 -2.39,-2.62 -2.77,-5.58 -4.02,-7.8 -9.92,-17.54 -28.63,-39.71 -38.04,-56.19 l -14.7,-25.76 c -4.72,-8.28 -18.19,-27.82 -27.69,-29.48 -16.19,-2.83 -40.93,-4.06 -56.57,1.01 -11.42,3.71 -2.08,46.38 -2.07,47.54 l 0.15,18.57 c 0.07,7.93 7.89,24.43 7.96,39.96 0.07,16.08 2.23,10.26 5.48,27.36 3.28,17.22 5.05,34.04 6.79,51.54 0.48,4.75 1.87,9.42 2.96,14.12 3.6,15.5 -1.03,9.81 5.97,33.14 0.43,1.43 0.47,3.18 0.66,6.18 l -2.24,-0.64 c -10.66,-15.77 -18.92,-20.49 -26.23,-37.59 -3.32,-7.78 -6.49,-15.03 -10.27,-22.73 -1.46,-2.99 -4.81,-6.14 -6.75,-9.01 -14.18,-20.96 -26.51,-47.67 -36.2,-71.1 -3.69,-8.93 -7.11,-17.51 -11.36,-26.13 -3.26,-6.6 -6.19,-12.92 -8.6,-19.86 -4.71,-13.54 -10.38,-29.72 -18.06,-41.57 l -30.97,-3.5 c -3.16,-0.36 -22.67,-1.17 -23.41,-0.13 -0.31,0.45 -0.77,2.17 -0.69,2.73 l 5.42,37.36 7.88,50.05 2.62,22.98 9.23,64.64 c 0.64,4.48 0.99,8.77 1.17,13.27 l 0.18,4.3 c -0.77,-0.28 -2.28,-0.7 -2.33,-0.84 -13,-30.34 -31.11,-59.53 -48.2,-87.85 l -6.52,-10.8 -25.43,-37.67 c -13.35,-19.79 -25.65,-29.93 -37.72,-46.73 -8.88,-12.39 -18.26,-26.2 -30.85,-34.67 -5.23,-3.52 -11.85,-4.9 -18.02,-4.3 -11.76,1.14 -22.84,3 -34.15,5.92 -6.86,1.77 -19.82,5.5 -20.02,13.56 -0.31,12.66 0.12,24.45 2.05,36.75 l 6.12,39.05 c 1.42,9.07 2.94,17.64 5.39,26.53 l 2.96,10.73 c 2.49,8.99 -14.36,-10.47 -15.24,-11.58 -9.62,-12.2 -18.33,-23.88 -27.22,-36.48 -4.95,-7.02 -11.15,-12.36 -16.61,-18.92 l -32.16,-38.76 -26.42,-31.98 c -3.77,-4.57 -13.38,-15.49 -19.3,-14.77 -18.66,2.25 -38.4,9.69 -55.7,17.04 -0.39,5.74 -0.9,10.79 -0.35,16.14 l 3.98,38.51 c 0.05,0.45 -0.15,2.18 -0.44,1.94 -0.3,-0.23 -1.73,-1.18 -2,-1.55 l -13.21,-17.85 -16.25,-20.44 -3.25,-5.64 -21.04,-24.8 -12.63,-16.91 c -3.72,-4.99 -10.18,-9.8 -16.74,-9.48 -14.719,0.73 -28.527,0.69 -42.976,-0.84 -5.371,-0.56 -9.86,2.66 -10.7,8.27 -2.652,17.72 -2.761,34.89 -2.16,52.92 0.91,26.8 1.879,52.69 5.348,79.23 l 4.07,31.23 c 0.832,6.33 1.75,11.81 3.172,18.05 4.481,19.56 6.777,39.17 9.277,59.16 1.231,9.85 2.84,18.97 5.161,28.54 5.023,20.76 0.582,17.62 8.793,45.13 l 8.918,29.91 c 2.531,8.49 2.531,16.84 3.441,25.58 0.59,5.65 2.91,11.93 4.456,17.58 l 10.3,37.77 c 5.99,21.94 13.88,49.64 35.5,61.6 11.28,6.24 10.95,8.02 23.43,11.56 15.71,4.46 10.51,9.47 38.95,15.56 13.9,2.98 27.04,4.87 41.39,6.57 2.27,0.27 6.48,-2.29 6.81,-4.3 l 1.56,-9.37 c -3.21,-7.37 -5.73,-13.97 -7.76,-21.55 -2.88,-10.67 -6.09,-20.72 -10.22,-30.99 -6.42,-15.95 -12.53,-31.44 -20.04,-46.93 -5.21,-10.74 -9.7,-21.03 -13.41,-32.39 -3.51,-10.75 -7.71,-20.84 -13.22,-30.73 l -20.75,-37.24 -18.42,-33.97 c -7.28,-13.43 -14.91,-25.93 -20.32,-40.32 -15.62,-41.51 -6.85,-44.1 -11.5,-70.7 -1.9,-10.88 -3.06,-21.22 -3.13,-32.19 -0.05,-8.75 -0.74,-16.73 -2.81,-25.57 -0.36,-1.52 1.41,-5.15 1.39,-6.74 l -0.76,-57.37 -0.07,-9.9 5.36,-4.23 c -0.41,-0.4 0.42,0.41 1,0.97 4.02,6.29 7.72,12.42 12.39,18.23 l 19.77,24.68 c 2.92,3.64 5.06,8.51 8.15,12.05 l 10.79,12.4 c 2.19,2.52 4.13,5.61 6.33,8.44 3.75,4.8 10.72,9.51 12.16,15.75 l 5.1,21.95 c 5.79,24.95 15.14,48.13 27.82,70.45 7.28,12.82 14.44,24.68 22.94,36.62 l 32.01,44.97 c 1.82,2.55 6.8,4.98 8.99,7.46 4.92,5.59 10.4,9.4 16.37,13.86 18.39,13.75 33.82,46.01 69.09,39.32 l 13.54,-2.57 c 9.31,-1.77 24.61,2.4 31.12,-4.09 0.6,-0.58 -0.91,-2.84 -1.66,-3.36 l -16.84,-11.82 c -6.8,-4.76 -13.18,-9.25 -19.46,-14.65 -15.9,-13.66 -29.22,-28.84 -41.32,-45.99 -11.44,-16.24 -22.14,-31.68 -32.35,-48.82 -27.6,-46.36 -38.61,-86.82 -46.3,-139.81 -1.53,-10.44 -1.69,-20.48 0.35,-31.17 l 14.81,20.84 6.88,6.8 16.08,23.57 35.63,50.39 c 8.59,12.14 16.56,23.95 23.79,36.88 l 10.37,18.52 c 3.67,6.56 7.84,12.44 11.11,19.16 l 10.86,22.3 c 1.94,3.97 5.49,7.58 7.26,11.65 l 11.66,26.76 c -1.13,-2.61 14.25,25.03 13.78,24.33 2.96,4.39 8.5,7.45 13.97,8.1 14.5,1.72 28.79,2.57 43.28,3.01 1.26,0.04 3.71,-2.65 3.31,-3.85 l -6.01,-18.29 c -5.01,-15.23 -9.95,-29.7 -13.42,-45.47 l -11.27,-51.35 c -3.02,-13.72 -6.93,-26.63 -8.55,-40.66 l -5.91,-51.2 c -1.9,-16.42 -5.65,-26.68 -4.88,-42.83 l 2.31,0.48 11.62,11.25 c 4.7,4.56 7.13,10.73 11.61,15.59 l 11.51,12.52 8.07,12.18 28.59,36.46 c 14.66,18.69 25.74,39.26 34.67,61.22 l 13.29,32.67 c 4.75,11.68 9.7,22.78 15.31,34.14 4.33,8.77 9.12,17.08 12.32,26.29 l 9.27,26.7 c 2.29,6.6 5.37,12.21 9.03,18.47 l 14.64,1.44 c 5.66,0.56 11.55,0.39 17.1,2.05 3.68,1.11 19.06,5.06 19.52,-1.97 0.68,-10.49 1.04,-24.27 -0.51,-35.65 l -6.41,-47.1 -3.16,-31.25 -2.17,-12.05 -1.33,-12.93 c -0.85,-8.28 -3.16,-16.1 -3.5,-24.4 -0.78,-19.05 -2.33,-19.22 -3.95,-35.97 l -1,-10.37 -0.56,-5.35 c -0.27,-0.96 0.32,-0.54 1.52,0.68 11.02,18.39 13.02,32.11 23.58,51.25 l 19.05,34.52 c 5.04,9.13 9.99,18.79 12.51,28.75 1.22,4.75 1.29,9.2 4.15,13.5 3.21,4.8 7.37,9.72 9.57,14.83 2.04,4.79 3.2,9.8 6.25,13.81 l 10.89,14.29 c 2.77,3.64 3.28,8.41 5,12.55 5.28,12.73 11.87,24.61 18.75,36.56 4.11,7.12 8.86,13.62 14.33,19.55 3.99,4.33 8.91,5 14.46,4.81 10.82,-0.37 20.5,6.13 39.01,7.59 1.5,0.12 12.72,0.07 11.28,-4.61 l -2.16,-7.05 -19.84,-82.66 -11.47,-56.53 -3.09,-28.32 -7.47,-37.58 -2.59,-17.67 -1.12,-17.36 c -0.03,-0.5 -0.23,-1.28 -0.37,-1.83 l -0.39,-1.78 -0.4,-1.79 -0.36,-1.64 -0.37,-1.57 -0.48,-2 c -0.81,-3.39 -5.92,-30.04 -3.2,-30.56 1.79,-0.34 7.85,5.22 8.62,6.26 l 38.59,52.16 18.64,26.63 c 1.9,2.72 6.74,9.79 10.01,14.83 4.73,7.29 8.19,11.14 15.8,21.65 l 8.58,12.91 c 3.99,3.78 13.46,12.89 18.12,7.75 3.61,-3.98 6.87,-7.54 9.33,-11.93 l 14.95,-26.56 c 11.98,-21.29 34.78,-48.91 55.07,-62.57 5.6,-3.78 19.81,-10.35 24.07,-2.82" style="fill:#000000;fill-opacity:1;fill-rule:nonzero;stroke:none" transform="matrix(0.13333333,0,0,-0.13333333,0,1122.52)"></path>
    <path id="path41" d="m 2561.07,2830.92 c -0.45,4.2 -2.38,9.19 -5.04,12.03 -7.89,8.43 -28.4,7.35 -39.46,6.39 l -36.56,-3.19 c -8.87,-0.77 -16.53,-4.44 -22.14,-11.52 -19.45,-24.51 -45.66,-61.13 -58.86,-89.3 l -10,-21.35 -9.5,-13 c -10.44,-14.27 -35.33,-78.11 -42.49,-97.82 -5.95,-16.37 -9.48,-21.13 -15.84,-36.63 -5.02,-12.23 -6.52,-11.03 -11.91,-27.08 l -11.6,-34.49 c -2.12,-6.31 -5.42,-13.63 -8.37,-19.46 -0.27,-0.53 -2.87,-1.16 -2.88,-0.43 -0.1,6.59 0.2,15.61 1.76,22.11 l 5.32,22.16 c 2.34,9.74 4.25,19.26 5.95,29.19 l 8.21,48.15 19.39,104.34 c 3.29,17.66 2.89,33.87 4.75,43.72 l 1.21,6.3 c 0.18,0.95 -2.44,3.21 -3.72,2.98 l -48.81,-8.48 c -11.27,-1.96 -4.69,-5.34 -25.55,-8.04 -5.63,-0.74 -10.29,-4.1 -15.92,-4.64 l -11.65,-1.11 c -5.61,-0.54 -10.47,-3.53 -15.83,-4.73 l -7.85,-1.77 c -0.5,-0.11 -1.07,-0.25 -1.61,-0.37 -0.06,-0.65 -0.18,-1.45 -0.18,-1.6 -0.09,-1.53 -0.09,-3.07 -0.16,-4.6 0,-0.1 -0.02,-0.12 -0.02,-0.19 0.02,-0.17 0.18,-0.67 0.3,-1.15 0.25,-0.15 0.53,-0.33 0.79,-0.5 0.21,-0.08 0.43,-0.19 0.57,-0.29 0.04,-0.02 0.06,-0.03 0.09,-0.04 1.27,-0.49 2.57,-0.89 3.86,-1.3 6.43,-2.05 12.59,-4.99 15.96,-10.8 1.23,-1.59 2.02,-3.54 2.17,-5.68 0.01,-0.17 0.01,-0.34 0.03,-0.52 1.05,-4.84 0.93,-9.93 0.65,-14.89 0.66,-30.9 -3.02,-62.75 -6.85,-93.18 l -7.09,-56.39 c -1.89,-15.09 -3.48,-29.59 -6.19,-44.5 l -5.7,-31.23 -13.93,-86.77 -1.92,-17.67 -4.42,-21.51 c -2.02,-9.84 -31.25,-187.2 -34.46,-196.84 -0.84,-2.53 -0.79,-5.78 -0.07,-8.47 14.16,2.75 24.68,8.2 40.27,11.99 l 30.37,13.08 c 1.52,0.05 4.97,1.77 5.74,3.28 3.01,5.94 30.69,159.96 32.65,166.47 l 13.95,46.37 10.72,30.23 c 3.44,9.73 6.19,19.24 10.28,28.62 l 9.72,22.29 c 4.35,9.99 7.85,19.74 10.99,30.18 2.01,6.67 5.33,12.91 7.91,19.44 l 10.78,27.29 c 1.51,3.83 3.22,7.84 5.1,11.5 l 20.19,39.14 30.37,61.36 c 21.26,42.96 34.16,64.97 61.17,104.33 9.27,13.48 4.27,1.64 13.88,15.86 l 5.8,8.58 c 0.27,0.41 1.43,1.46 1.77,1.76 1.5,1.37 5.32,-17.95 5.48,-22.91 l 0.07,-2.26 0.09,-2.26 -0.09,-24.33 -1.05,-13.97 -0.07,-23.67 c -0.02,-4.73 -2.33,-9.62 -2.84,-14.33 l -3.93,-36.12 c -0.3,-2.77 0.69,-7.61 0.13,-10.07 l -3.67,-16.26 c -3.64,-16.07 -10.14,-30.59 -20.4,-43.32 -6.51,-8.06 -14.25,-13.76 -23.49,-18.45 -14.84,-7.54 -29.22,-14.7 -44.62,-20.98 l -37.2,-15.16 c -5.34,-2.17 -15.12,-7.39 -17.63,-12.48 -0.39,-0.77 1.27,-3.62 2.43,-3.5 l 36.59,3.77 c 9.32,0.95 17.64,0.92 26.33,-0.23 18.69,-2.47 20.73,-22.15 22.78,-37.82 1.22,-9.32 0.82,-18.08 0.43,-27.37 -0.43,-10.03 -0.02,-19.86 0.07,-29.92 0.12,-10.4 -0.16,-20.34 -0.94,-30.73 -0.42,-5.52 -2.96,-11.09 -3.9,-16.39 l -5.22,-29.92 c -1.3,-7.42 -2.47,-14.48 -3.12,-21.98 -0.97,-11.23 -22.07,-92.68 -25.88,-103.37 -5.05,-14.13 -13.57,-27.79 -26.51,-35.89 l -26.13,-16.37 c -8.26,-5.17 -16.07,-10.7 -24.77,-15.01 -11.19,-5.56 -22.18,-10.25 -33.74,-15.11 -15.38,-6.45 -29.63,-13.55 -44.63,-20.83 -7.87,-3.83 -16.34,-6.21 -24.52,-9.31 -13.95,-5.29 -27.18,-10.46 -40.86,-16.57 -1.82,-0.81 -20.21,-9.52 -18.17,-11.46 3.8,-3.61 6.69,-1.43 10.12,-0.66 18.48,4.12 36,8.97 54.08,14.87 l 45.5,14.85 c 21.79,7.1 42.89,13.23 63.9,22.54 l 57.15,25.33 c 6.12,2.72 12.89,4.21 18.86,7.25 l 40.1,20.49 21.41,11.81 c 1.29,0.72 3.5,3.48 4.06,5.04 l 34.06,111.19 c 2.25,6.28 3.27,13.23 4.37,19.73 l 8,47.42 c 9.01,53.43 14.28,100.28 11.12,154.76 -0.29,4.92 -2.15,8.9 -5.82,11.5 -3.67,2.6 -7.91,2.21 -12.77,0.77 -3.47,-1.03 -7.84,-0.52 -11.72,-0.55 -18.19,-0.16 -36.24,-6.66 -52.89,-8.34 l -29.91,-3.02 -1.98,1.1 c 6.96,2.13 10.96,3.3 16.8,4.75 5.36,1.34 9.68,4.58 14.68,6.74 31.91,13.75 63.37,26.64 94.34,42.75 9.61,4.99 18.57,11.56 26.71,17.5 10.6,7.74 21.02,98.59 22.79,115.69 3.97,38.03 3.98,75.34 -0.07,113.46" style="fill:#000000;fill-opacity:1;fill-rule:nonzero;stroke:none" transform="matrix(0.13333333,0,0,-0.13333333,0,1122.52)"></path>
    <path id="path42" d="m 939.914,2857.72 c -6.879,3.18 -25.019,-0.66 -32.348,-1.74 -2.011,-1.92 -3.64,-2.13 -6.203,-2.03 -20.91,0.79 -20.718,-4.31 -27.929,-5.36 -9.457,-1.38 -17.829,-4.68 -24.84,-11.42 -6.379,-6.14 -12.071,-13.25 -16.449,-21.26 l -23.872,-43.62 -30.269,-63.53 -15.84,-33.7 c -5.141,-10.94 -8.937,-22.28 -13.211,-33.73 -4.406,-11.79 -9.777,-22.08 -15.68,-33.02 -8.386,-15.61 -14.136,-32.08 -20.296,-48.9 -1.672,-4.58 -1.84,-10.92 -3.821,-14.99 -10.812,-22.16 -21.101,-43.39 -28.32,-67.22 -4.582,-15.11 -10.09,-30.24 -16.063,-44.39 -0.476,-1.15 -3.707,-2.02 -3.707,-1.12 -0.019,19.66 4.989,29.64 7.489,47.47 l 4.379,31.34 10.839,75.9 c 0.903,6.31 2.524,12.23 3.84,18.44 1.992,9.42 3.211,18.64 4.25,28.22 l 2.774,25.66 c 0.539,4.94 1.047,9.95 1.988,14.81 l 6.762,34.75 c 2.879,14.83 3.777,29.23 5.277,44.48 0.211,2.15 -2.238,5.98 -3.898,5.67 l -42.153,-8.09 c -6.758,-1.3 -13.636,-2.62 -19.886,-4.99 -2.692,-1.03 -5.211,-2.18 -8.051,-2.72 -15.86,-3 -32.922,-6.61 -49.891,-10.83 -0.969,-0.4 -2,-0.65 -3.07,-0.75 -0.371,-0.09 -0.731,-0.19 -1.102,-0.28 -0.039,-0.03 -0.097,-0.07 -0.168,-0.12 -0.3,-0.31 -0.582,-0.64 -0.859,-0.98 0.18,0.05 -0.691,-1.64 -0.852,-1.71 -0.328,-0.95 -0.578,-1.94 -0.75,-2.93 0.032,-0.25 -0.027,-1.46 -0.05,-2.22 0.031,-0.11 0.062,-0.27 0.101,-0.44 0.012,-0.02 0.012,-0.02 0.02,-0.04 0.031,-0.03 0.019,-0.02 0.039,-0.05 0.121,-0.11 0.09,-0.09 0.172,-0.17 0.73,-0.49 1.488,-0.92 2.269,-1.32 0.379,-0.11 2.11,-0.82 2.379,-0.91 1.18,-0.41 2.371,-0.78 3.551,-1.16 2.82,-0.91 5.558,-1.94 8.25,-3.24 2.851,-1.37 5.879,-2.6 8.23,-4.87 0.879,-0.85 1.571,-1.77 2.16,-2.73 1.79,-1.53 3.161,-3.61 3.52,-5.63 0.27,-1.52 0.461,-2.91 0.5,-4.3 0.02,-0.27 0.129,-0.46 0.129,-0.74 -0.359,-22.61 -4.078,-41.08 -3.078,-60.03 0.308,-5.93 0.621,-11.61 -0.52,-17.44 -4.801,-24.58 -8.98,-48.48 -12.25,-73.41 -2.14,-16.39 -2.711,-31.97 -2.922,-48.5 -0.308,-23.16 -7.609,-43.47 -9.711,-63.66 l -3.429,-33.07 c -1.231,-11.79 -3.09,-22.95 -5.449,-34.56 -3.719,-18.39 -6.5,-36.19 -9,-54.82 l -6.27,-46.55 c -2.129,-15.86 -14.941,-75.69 -19.898,-90.77 -0.77,-2.33 -0.223,-6.17 -0.75,-8.13 l -7.653,-28.63 c -1.371,-5.14 -4.008,-26.8 -0.769,-27.93 2.89,-1.01 19.859,5.25 24.351,6.95 9.098,3.45 17.598,6.13 26.981,8.48 12.187,3.05 24.519,6.94 27.718,21.97 l 17.731,84.85 6.57,28.2 7.731,30.06 c 3.386,13.18 7.707,25.73 10.008,39.21 l 4.058,23.81 c 1.344,7.84 4.152,15.11 7.422,22.2 2.391,12.22 5.23,24.06 10.02,35.54 l 15.628,37.38 c 2.102,5 2.352,11.75 4.832,16.38 2.239,4.19 4.918,8.05 6.329,12.32 l 6.222,18.92 c 1.969,5.98 5.25,11.39 9.231,16.25 l 13.789,35.77 c 3.801,9.87 6.738,20.28 12.14,29.35 10.321,17.35 20.618,33.79 29.329,52.1 2.742,5.76 4.421,11.67 6.5,17.72 6.511,18.95 36.941,73.17 48.128,87.72 l 9.293,12.08 14.879,23.96 c 1.141,1.84 4.918,3.6 7.321,4.64 1.648,-8.08 2.238,-15.15 1.929,-23.15 -0.5,-12.93 -1.039,-25.39 -0.718,-38.4 0.148,-6.1 1.707,-12.41 1.097,-18.36 l -2.769,-26.93 -5.008,-73.82 c -2.152,-31.82 -0.953,-27.43 -5.543,-58.99 -4.617,-31.71 -0.938,-12.23 -10.199,-42.54 -2.461,-8.08 -7.239,-13.95 -13.828,-18.16 -8.813,-5.63 -16.661,-12.03 -24.192,-19.43 -8.121,-7.98 -14.691,-14.34 -26.34,-15.91 -9.929,-3.7 -93.109,-40.5 -90.57,-48.6 1.328,-4.25 29.02,4.3 33.359,5.95 l 26.602,10.11 c 18.43,7.01 36.187,13.86 54.918,19.74 15.59,4.9 18.019,10.25 39.25,17.16 24.5,7.98 47.09,26.02 59.871,30.88 l 8.02,3.05 c 4.832,4.95 9.07,8.71 14.851,12.18 11.598,33.08 10.879,27.86 15.5,62.94 l 2.391,16.16 9.539,93.14 c 2.371,23.12 3.937,45.08 4.211,68.21 l 0.718,62.26 c 0.211,18.27 -1.66,47.68 -6.941,64.66" style="fill:#000000;fill-opacity:1;fill-rule:nonzero;stroke:none" transform="matrix(0.13333333,0,0,-0.13333333,0,1122.52)"></path>
    <path id="path43" d="m 658.93,2296.73 c -0.059,0.41 -0.438,0.7 -0.848,0.63 -0.41,-0.06 -0.691,-0.43 -0.641,-0.84 0.059,-0.41 0.442,-0.7 0.848,-0.64 0.41,0.05 0.703,0.44 0.641,0.85" style="fill:#000000;fill-opacity:1;fill-rule:nonzero;stroke:none" transform="matrix(0.13333333,0,0,-0.13333333,0,1122.52)"></path>
    <path id="path44" d="m 1297.63,2638.98 c -16.3,-2.09 -31.64,-1.52 -46.97,0.16 l -9.53,21.36 c -3.46,7.73 -7.18,18.11 -6.84,26.13 l -4.5,5.78 c 10.27,1.5 19.5,2.29 29.65,2.18 l 20.62,-0.27 c 10.86,-0.14 21.27,1.2 31.72,4.04 10.16,2.75 20.08,4.75 30.62,6.21 7.56,1.04 15.08,2.27 22.23,4.59 l 21.6,6.95 c 9.79,3.16 21.85,7.77 25.94,0.23 l 5.58,-10.27 18.66,-40.91 c 0.52,-1.12 -0.4,-4 -1.45,-4.5 -31.73,-15.12 -32.69,-8.18 -44.22,-11.11 l -23.71,-6 c -37.16,-9.41 -43.52,-1.26 -69.4,-4.57" style="fill:#000000;fill-opacity:1;fill-rule:nonzero;stroke:none" transform="matrix(0.13333333,0,0,-0.13333333,0,1122.52)"></path>
    <path id="path45" d="m 658.93,2296.73 c 0.062,-0.41 -0.231,-0.8 -0.641,-0.85 -0.406,-0.06 -0.789,0.23 -0.848,0.64 -0.05,0.41 0.231,0.78 0.641,0.84 0.41,0.07 0.789,-0.22 0.848,-0.63" style="fill:#000000;fill-opacity:1;fill-rule:nonzero;stroke:none" transform="matrix(0.13333333,0,0,-0.13333333,0,1122.52)"></path>
    <path id="path46" d="m 3848.38,2013.17 c 25.3,0 42.21,20.64 42.21,48.87 0,19.71 -10.79,31.83 -30.89,31.83 h -17.98 l -9.98,-80.7 z m -13.32,87.62 h 25.17 c 24.77,0 38.08,-14.78 38.08,-38.62 0,-32.89 -19.97,-55.93 -50.33,-55.93 h -24.5" style="fill:#ffffff;fill-opacity:1;fill-rule:nonzero;stroke:none" transform="matrix(0.13333333,0,0,-0.13333333,0,1122.52)"></path>
    <path id="path47" d="m 3932.04,2012.36 58.19,81.23 v 0.27 h -45.53 l 0.93,6.94 h 55.12 l -0.79,-6.14 -58.45,-81.09 0.12,-0.39 h 48.73 l -0.79,-6.93 h -58.33" style="fill:#ffffff;fill-opacity:1;fill-rule:nonzero;stroke:none" transform="matrix(0.13333333,0,0,-0.13333333,0,1122.52)"></path>
    <path id="path48" d="m 4039.69,2121.7 h 33.42 l -0.8,-6 h -33.43 z m 9.98,-20.9 h 7.45 l -11.57,-94.55 h -7.47" style="fill:#ffffff;fill-opacity:1;fill-rule:nonzero;stroke:none" transform="matrix(0.13333333,0,0,-0.13333333,0,1122.52)"></path>
    <path id="path49" d="m 4101.15,2100.79 h 7.73 l 17.84,-83.77 h 0.14 l 37.94,83.77 h 8.15 l -43.82,-94.55 h -7.08" style="fill:#ffffff;fill-opacity:1;fill-rule:nonzero;stroke:none" transform="matrix(0.13333333,0,0,-0.13333333,0,1122.52)"></path>
    <path id="path50" d="m 4244.89,2038.47 -11.57,52.86 h -0.27 l -24.38,-52.86 z m -14.63,62.32 h 7.97 l 21.19,-94.55 h -7.72 l -5.47,25.43 h -40.47 l -11.72,-25.43 h -7.74" style="fill:#ffffff;fill-opacity:1;fill-rule:nonzero;stroke:none" transform="matrix(0.13333333,0,0,-0.13333333,0,1122.52)"></path>
    <path id="path51" d="m 4426.88,2100.79 h 7.45 l 25.85,-65.13 h 0.39 l 41.55,65.13 h 7.33 l -11.46,-94.55 h -7.46 l 9.59,78.71 h -0.4 l -37.82,-58.88 h -5.46 l -23.83,59.81 h -0.28 l -9.57,-79.64 h -7.47" style="fill:#ffffff;fill-opacity:1;fill-rule:nonzero;stroke:none" transform="matrix(0.13333333,0,0,-0.13333333,0,1122.52)"></path>
    <path id="path52" d="m 4578.57,2121.7 h 33.42 l -0.79,-6 h -33.44 z m -25.83,-76.7 6.93,55.8 h 7.46 l -6.93,-55.94 c -2.39,-19.04 3.46,-32.09 20.23,-32.09 16.11,0 26.9,9.72 29.7,31.3 l 6.79,56.73 h 7.46 l -6.92,-56.73 c -3.2,-26.23 -16.13,-38.49 -37.29,-38.49 -22.11,0 -30.22,15.85 -27.43,39.42" style="fill:#ffffff;fill-opacity:1;fill-rule:nonzero;stroke:none" transform="matrix(0.13333333,0,0,-0.13333333,0,1122.52)"></path>
    <path id="path53" d="m 4659.05,2012.36 58.19,81.23 v 0.27 h -45.55 l 0.93,6.94 h 55.14 l -0.81,-6.14 -58.45,-81.09 0.13,-0.39 h 48.74 l -0.8,-6.93 h -58.33" style="fill:#ffffff;fill-opacity:1;fill-rule:nonzero;stroke:none" transform="matrix(0.13333333,0,0,-0.13333333,0,1122.52)"></path>
    <path id="path54" d="m 4776.67,2100.79 h 7.47 l -11.58,-94.55 h -7.47 z" style="fill:#ffffff;fill-opacity:1;fill-rule:nonzero;stroke:none" transform="matrix(0.13333333,0,0,-0.13333333,0,1122.52)"></path>
    <path id="path55" d="m 4858.92,2057.64 27.29,-51.4 h -8.65 l -24.11,45.95 -18.1,-20.24 -3.05,-25.71 h -7.47 l 11.58,94.55 h 7.46 l -7.05,-57.27 0.25,-0.12 50.61,57.39 h 9.47" style="fill:#ffffff;fill-opacity:1;fill-rule:nonzero;stroke:none" transform="matrix(0.13333333,0,0,-0.13333333,0,1122.52)"></path>
    <path id="path56" d="m 4979.61,2038.47 -11.59,52.86 h -0.25 l -24.37,-52.86 z m -14.64,62.32 h 7.99 l 21.17,-94.55 h -7.73 l -5.46,25.43 h -40.49 l -11.71,-25.43 h -7.72" style="fill:#ffffff;fill-opacity:1;fill-rule:nonzero;stroke:none" transform="matrix(0.13333333,0,0,-0.13333333,0,1122.52)"></path>
    <path id="path57" d="m 4032.37,2556.78 c 5.11,16.22 11.62,30.34 19.51,44.76 2.77,5.07 4.75,10.76 6.59,16.47 9.54,29.63 17.53,58.94 24.09,89.42 1.22,5.65 6.25,30.78 3.06,33.88 l -16.51,-2.35 c -9.54,-11.29 -16.06,-37.49 -19.42,-52.47 l -25.71,-114.39 -11.7,-53.33 c -0.4,-1.8 -0.38,-4.27 -0.25,-6.37 l 9.59,17.64 c 4.49,8.25 7.75,17.22 10.75,26.74 m 830.95,-173.42 c 6.84,12.1 10.64,27.49 13.43,41.24 6.2,30.59 13.41,79.78 12.83,110.89 -0.13,6.74 -5.99,15.31 -13.43,15.33 -13.38,0.03 -30.71,-8.13 -59.3,-7.31 -10.97,0.31 -29.96,3.73 -31.9,16.69 -4.35,28.93 -4.19,16.84 2.66,48.45 l 7.36,33.92 c 1.58,7.31 4.14,14.09 7.09,21.13 1.68,4.01 5.11,8.13 8.89,10.36 8.92,5.25 18.5,9.89 28.92,11.34 l 46.71,6.5 c 10.68,1.48 21.37,0.84 32.17,1.44 l 25.4,1.39 c 16.65,0.91 -12.61,-29.68 -17.28,-31 -16.04,2.88 -42.94,11 -51.71,-7.7 -1.95,-4.16 -3.52,-8.86 -4.7,-13.46 l -8.61,-33.48 c -2.19,-8.51 -3.02,-17.09 -3.34,-26 -0.15,-3.93 2.91,-7.43 6.78,-7.7 18.14,-1.28 24.28,4.81 37.82,7.55 15.45,3.13 43.19,1.7 53.37,-11.68 7.66,-10.07 8.16,-34.33 7.1,-47.01 -3.11,-36.98 -3.79,-40.95 -15.16,-75.67 -2.99,-9.11 -15.34,-44.38 -21.37,-48.92 l -35.71,-26.88 c -10.28,-7.74 -20.74,-14.55 -31.89,-20.95 -5.54,-3.17 -31.6,-15.2 -39.01,-16.55 -37.7,23.27 -72.71,46.99 -101.33,81.34 -2.39,-2.62 -2.77,-5.58 -4.02,-7.8 -9.92,-17.54 -28.63,-39.71 -38.04,-56.19 l -14.7,-25.76 c -4.73,-8.28 -18.19,-27.82 -27.69,-29.48 -16.19,-2.83 -40.93,-4.06 -56.57,1.01 -11.42,3.71 -2.08,46.38 -2.07,47.54 l 0.15,18.57 c 0.07,7.93 7.89,24.43 7.96,39.96 0.07,16.08 2.23,10.26 5.48,27.36 3.28,17.22 5.05,34.04 6.79,51.54 0.47,4.75 1.87,9.42 2.96,14.12 3.6,15.5 -1.03,9.81 5.97,33.14 0.43,1.43 0.47,3.18 0.66,6.18 l -2.24,-0.64 c -10.66,-15.77 -18.92,-20.49 -26.23,-37.59 -3.32,-7.78 -6.49,-15.03 -10.27,-22.73 -1.46,-2.99 -4.81,-6.14 -6.75,-9.01 -14.18,-20.96 -26.51,-47.67 -36.2,-71.1 -3.69,-8.93 -7.11,-17.51 -11.36,-26.13 -3.26,-6.6 -6.19,-12.92 -8.6,-19.86 -4.71,-13.54 -10.38,-29.72 -18.06,-41.57 l -30.97,-3.5 c -3.16,-0.36 -22.67,-1.17 -23.41,-0.13 -0.31,0.45 -0.77,2.17 -0.69,2.73 l 5.42,37.36 7.88,50.05 2.61,22.98 9.24,64.64 c 0.64,4.48 0.99,8.77 1.17,13.27 l 0.18,4.3 c -0.77,-0.28 -2.28,-0.7 -2.34,-0.84 -13,-30.34 -31.1,-59.53 -48.19,-87.85 l -6.52,-10.8 -25.43,-37.67 c -13.36,-19.79 -25.65,-29.93 -37.72,-46.73 -8.89,-12.39 -18.26,-26.2 -30.85,-34.67 -5.23,-3.52 -11.85,-4.9 -18.02,-4.3 -11.76,1.14 -22.84,3 -34.15,5.92 -6.87,1.77 -19.82,5.5 -20.02,13.56 -0.31,12.66 0.12,24.45 2.05,36.75 l 6.12,39.05 c 1.42,9.07 2.94,17.64 5.39,26.53 l 2.96,10.73 c 2.49,8.99 -14.37,-10.47 -15.24,-11.58 -9.62,-12.2 -18.33,-23.88 -27.22,-36.48 -4.95,-7.02 -11.16,-12.36 -16.61,-18.92 l -32.16,-38.76 -26.42,-31.98 c -3.77,-4.57 -13.38,-15.49 -19.3,-14.77 -18.67,2.25 -38.4,9.69 -55.7,17.04 -0.39,5.74 -0.9,10.79 -0.35,16.14 l 3.98,38.51 c 0.05,0.45 -0.15,2.18 -0.44,1.94 -0.3,-0.23 -1.73,-1.18 -2,-1.55 l -13.21,-17.85 -16.25,-20.44 -3.25,-5.64 -21.04,-24.8 -12.63,-16.91 c -3.72,-4.99 -10.18,-9.8 -16.74,-9.48 -14.72,0.73 -28.53,0.69 -42.98,-0.84 -5.37,-0.56 -9.86,2.66 -10.7,8.27 -2.65,17.72 -2.76,34.89 -2.16,52.92 0.91,26.8 1.88,52.69 5.35,79.23 l 4.07,31.23 c 0.83,6.33 1.75,11.81 3.17,18.05 4.48,19.56 6.78,39.17 9.28,59.16 1.23,9.85 2.84,18.97 5.16,28.54 5.02,20.76 0.58,17.62 8.79,45.13 l 8.92,29.91 c 2.53,8.49 2.53,16.84 3.44,25.58 0.59,5.65 2.91,11.93 4.46,17.58 l 10.3,37.77 c 5.99,21.94 13.88,49.64 35.5,61.6 11.28,6.24 10.95,8.02 23.43,11.56 15.71,4.46 10.51,9.47 38.95,15.56 13.9,2.98 27.04,4.87 41.39,6.57 2.27,0.27 6.48,-2.29 6.81,-4.3 l 1.56,-9.37 c -3.21,-7.37 -5.73,-13.97 -7.76,-21.55 -2.88,-10.67 -6.09,-20.72 -10.22,-30.99 -6.42,-15.95 -12.53,-31.44 -20.04,-46.93 -5.21,-10.74 -9.7,-21.03 -13.41,-32.39 -3.51,-10.75 -7.71,-20.84 -13.22,-30.73 l -20.75,-37.24 -18.42,-33.97 c -7.28,-13.43 -14.91,-25.93 -20.32,-40.32 -15.62,-41.51 -6.85,-44.1 -11.5,-70.7 -1.9,-10.88 -3.06,-21.22 -3.13,-32.19 -0.05,-8.75 -0.74,-16.73 -2.81,-25.57 -0.36,-1.52 1.41,-5.15 1.39,-6.74 l -0.76,-57.37 -0.08,-9.9 5.37,-4.23 c -0.41,-0.4 0.42,0.41 1,0.97 4.02,6.29 7.72,12.42 12.38,18.23 l 19.78,24.68 c 2.92,3.64 5.06,8.51 8.15,12.05 l 10.79,12.4 c 2.19,2.52 4.13,5.61 6.33,8.44 3.75,4.8 10.72,9.51 12.16,15.75 l 5.1,21.95 c 5.79,24.95 15.14,48.13 27.82,70.45 7.28,12.82 14.44,24.68 22.94,36.62 l 32.01,44.97 c 1.82,2.55 6.8,4.98 8.99,7.46 4.92,5.59 10.4,9.4 16.37,13.86 18.39,13.75 33.82,46.01 69.09,39.32 l 13.54,-2.57 c 9.31,-1.77 24.61,2.4 31.12,-4.09 0.6,-0.58 -0.91,-2.84 -1.66,-3.36 l -16.84,-11.82 c -6.8,-4.76 -13.18,-9.25 -19.46,-14.65 -15.9,-13.66 -29.23,-28.84 -41.32,-45.99 -11.44,-16.24 -22.14,-31.68 -32.35,-48.82 -27.6,-46.36 -38.61,-86.82 -46.31,-139.81 -1.52,-10.44 -1.68,-20.48 0.36,-31.17 l 14.81,20.84 6.88,6.8 16.08,23.57 35.63,50.39 c 8.59,12.14 16.56,23.95 23.79,36.88 l 10.37,18.52 c 3.67,6.56 7.83,12.44 11.11,19.16 l 10.86,22.3 c 1.94,3.97 5.49,7.58 7.26,11.65 l 11.66,26.76 c -1.13,-2.61 14.25,25.03 13.78,24.33 2.96,4.39 8.5,7.45 13.97,8.1 14.5,1.72 28.79,2.57 43.28,3.01 1.26,0.04 3.71,-2.65 3.31,-3.85 l -6.01,-18.29 c -5.01,-15.23 -9.95,-29.7 -13.42,-45.47 l -11.27,-51.35 c -3.02,-13.72 -6.93,-26.63 -8.55,-40.66 l -5.91,-51.2 c -1.9,-16.42 -5.65,-26.68 -4.88,-42.83 l 2.31,0.48 11.62,11.25 c 4.7,4.56 7.13,10.73 11.61,15.59 l 11.51,12.52 8.07,12.18 28.59,36.46 c 14.66,18.69 25.74,39.26 34.67,61.22 l 13.29,32.67 c 4.75,11.68 9.7,22.78 15.31,34.14 4.33,8.77 9.12,17.08 12.32,26.29 l 9.27,26.7 c 2.29,6.6 5.37,12.21 9.03,18.47 l 14.64,1.44 c 5.66,0.56 11.55,0.39 17.1,2.05 3.68,1.11 19.06,5.06 19.52,-1.97 0.68,-10.49 1.03,-24.27 -0.51,-35.65 l -6.41,-47.1 -3.16,-31.25 -2.17,-12.05 -1.33,-12.93 c -0.85,-8.28 -3.16,-16.1 -3.5,-24.4 -0.78,-19.05 -2.33,-19.22 -3.95,-35.97 l -1,-10.37 -0.56,-5.35 c -0.27,-0.96 0.32,-0.54 1.52,0.68 11.02,18.39 13.02,32.11 23.58,51.25 l 19.05,34.52 c 5.04,9.13 9.99,18.79 12.51,28.75 1.21,4.75 1.29,9.2 4.15,13.5 3.21,4.8 7.37,9.72 9.56,14.83 2.05,4.79 3.21,9.8 6.26,13.81 l 10.89,14.29 c 2.77,3.64 3.28,8.41 5,12.55 5.28,12.73 11.87,24.61 18.75,36.56 4.1,7.12 8.85,13.62 14.33,19.55 3.99,4.33 8.91,5 14.46,4.81 10.82,-0.37 20.5,6.13 39.01,7.59 1.5,0.12 12.72,0.07 11.28,-4.61 l -2.16,-7.05 -19.85,-82.66 -11.47,-56.53 -3.08,-28.32 -7.47,-37.58 -2.59,-17.67 -1.12,-17.36 c -0.03,-0.5 -0.24,-1.28 -0.37,-1.83 l -0.39,-1.78 -0.4,-1.79 -0.36,-1.64 -0.37,-1.57 -0.48,-2 c -0.81,-3.39 -5.92,-30.04 -3.2,-30.56 1.79,-0.34 7.85,5.22 8.62,6.26 l 38.59,52.16 18.64,26.63 c 1.9,2.72 6.74,9.79 10.01,14.83 4.72,7.29 8.19,11.14 15.8,21.65 l 8.58,12.91 c 3.99,3.78 13.46,12.89 18.12,7.75 3.61,-3.98 6.87,-7.54 9.33,-11.93 l 14.95,-26.56 c 11.98,-21.29 34.78,-48.91 55.07,-62.57 5.6,-3.78 19.81,-10.35 24.07,-2.82" style="fill:#ffffff;fill-opacity:1;fill-rule:nonzero;stroke:none" transform="matrix(0.13333333,0,0,-0.13333333,0,1122.52)"></path>
    <path id="path58" d="m 5532.81,2830.92 c -0.45,4.2 -2.38,9.19 -5.04,12.03 -7.9,8.43 -28.4,7.35 -39.46,6.39 l -36.56,-3.19 c -8.86,-0.77 -16.52,-4.44 -22.14,-11.52 -19.45,-24.51 -45.66,-61.13 -58.86,-89.3 l -10,-21.35 -9.5,-13 c -10.44,-14.27 -35.33,-78.11 -42.49,-97.82 -5.94,-16.37 -9.48,-21.13 -15.84,-36.63 -5.02,-12.23 -6.52,-11.03 -11.91,-27.08 l -11.6,-34.49 c -2.12,-6.31 -5.42,-13.63 -8.37,-19.46 -0.27,-0.53 -2.87,-1.16 -2.88,-0.43 -0.09,6.59 0.2,15.61 1.76,22.11 l 5.32,22.16 c 2.34,9.74 4.26,19.26 5.95,29.19 l 8.21,48.15 19.4,104.34 c 3.28,17.66 2.88,33.87 4.75,43.72 l 1.2,6.3 c 0.18,0.95 -2.43,3.21 -3.72,2.98 l -48.8,-8.48 c -11.27,-1.96 -4.7,-5.34 -25.56,-8.04 -5.63,-0.74 -10.28,-4.1 -15.92,-4.64 l -11.65,-1.11 c -5.61,-0.54 -10.47,-3.53 -15.83,-4.73 l -7.85,-1.77 c -0.5,-0.11 -1.07,-0.25 -1.61,-0.37 -0.06,-0.65 -0.17,-1.45 -0.18,-1.6 -0.09,-1.53 -0.08,-3.07 -0.16,-4.6 -0.01,-0.1 -0.01,-0.12 -0.02,-0.19 0.03,-0.17 0.18,-0.67 0.3,-1.15 0.25,-0.15 0.53,-0.33 0.8,-0.5 0.2,-0.08 0.43,-0.19 0.56,-0.29 0.04,-0.02 0.06,-0.03 0.1,-0.04 1.27,-0.49 2.56,-0.89 3.85,-1.3 6.43,-2.05 12.59,-4.99 15.96,-10.8 1.23,-1.59 2.02,-3.54 2.17,-5.68 0.02,-0.17 0.02,-0.34 0.03,-0.52 1.05,-4.84 0.93,-9.93 0.65,-14.89 0.66,-30.9 -3.02,-62.75 -6.85,-93.18 l -7.09,-56.39 c -1.89,-15.09 -3.47,-29.59 -6.19,-44.5 l -5.7,-31.23 -13.93,-86.77 -1.92,-17.67 -4.42,-21.51 c -2.02,-9.84 -31.25,-187.2 -34.46,-196.84 -0.84,-2.53 -0.79,-5.78 -0.07,-8.47 14.16,2.75 24.68,8.2 40.27,11.99 l 30.38,13.08 c 1.51,0.05 4.96,1.77 5.73,3.28 3.02,5.94 30.7,159.96 32.65,166.47 l 13.95,46.37 10.72,30.23 c 3.45,9.73 6.19,19.24 10.28,28.62 l 9.72,22.29 c 4.36,9.99 7.86,19.74 10.99,30.18 2,6.67 5.33,12.91 7.91,19.44 l 10.78,27.29 c 1.51,3.83 3.22,7.84 5.11,11.5 l 20.18,39.14 30.37,61.36 c 21.26,42.96 34.16,64.97 61.18,104.33 9.26,13.48 4.27,1.64 13.87,15.86 l 5.8,8.58 c 0.27,0.41 1.44,1.46 1.77,1.76 1.5,1.37 5.33,-17.95 5.49,-22.91 l 0.07,-2.26 0.08,-2.26 -0.09,-24.33 -1.05,-13.97 -0.07,-23.67 c -0.01,-4.73 -2.33,-9.62 -2.84,-14.33 l -3.93,-36.12 c -0.3,-2.77 0.69,-7.61 0.13,-10.07 l -3.67,-16.26 c -3.64,-16.07 -10.13,-30.59 -20.4,-43.32 -6.51,-8.06 -14.25,-13.76 -23.48,-18.45 -14.85,-7.54 -29.23,-14.7 -44.63,-20.98 l -37.2,-15.16 c -5.33,-2.17 -15.12,-7.39 -17.63,-12.48 -0.38,-0.77 1.27,-3.62 2.43,-3.5 l 36.6,3.77 c 9.31,0.95 17.63,0.92 26.32,-0.23 18.69,-2.47 20.73,-22.15 22.78,-37.82 1.22,-9.32 0.82,-18.08 0.43,-27.37 -0.43,-10.03 -0.02,-19.86 0.08,-29.92 0.11,-10.4 -0.17,-20.34 -0.95,-30.73 -0.41,-5.52 -2.96,-11.09 -3.89,-16.39 l -5.23,-29.92 c -1.3,-7.42 -2.47,-14.48 -3.12,-21.98 -0.97,-11.23 -22.06,-92.68 -25.88,-103.37 -5.04,-14.13 -13.57,-27.79 -26.51,-35.89 l -26.13,-16.37 c -8.26,-5.17 -16.06,-10.7 -24.77,-15.01 -11.19,-5.56 -22.18,-10.25 -33.74,-15.11 -15.37,-6.45 -29.62,-13.55 -44.62,-20.83 -7.88,-3.83 -16.34,-6.21 -24.52,-9.31 -13.96,-5.29 -27.19,-10.46 -40.87,-16.57 -1.82,-0.81 -20.2,-9.52 -18.17,-11.46 3.8,-3.61 6.69,-1.43 10.12,-0.66 18.48,4.12 36.01,8.97 54.08,14.87 l 45.5,14.85 c 21.79,7.1 42.89,13.23 63.9,22.54 l 57.15,25.33 c 6.13,2.72 12.9,4.21 18.86,7.25 l 40.11,20.49 21.4,11.81 c 1.29,0.72 3.5,3.48 4.06,5.04 l 34.06,111.19 c 2.25,6.28 3.27,13.23 4.37,19.73 l 8,47.42 c 9.02,53.43 14.29,100.28 11.12,154.76 -0.29,4.92 -2.15,8.9 -5.82,11.5 -3.67,2.6 -7.91,2.21 -12.76,0.77 -3.48,-1.03 -7.84,-0.52 -11.73,-0.55 -18.19,-0.16 -36.24,-6.66 -52.88,-8.34 l -29.91,-3.02 -1.99,1.1 c 6.96,2.13 10.96,3.3 16.8,4.75 5.36,1.34 9.68,4.58 14.68,6.74 31.92,13.75 63.37,26.64 94.34,42.75 9.61,4.99 18.58,11.56 26.71,17.5 10.6,7.74 21.02,98.59 22.8,115.69 3.96,38.03 3.97,75.34 -0.08,113.46" style="fill:#ffffff;fill-opacity:1;fill-rule:nonzero;stroke:none" transform="matrix(0.13333333,0,0,-0.13333333,0,1122.52)"></path>
    <path id="path59" d="m 3911.66,2857.72 c -6.88,3.18 -25.02,-0.66 -32.35,-1.74 -2.01,-1.92 -3.64,-2.13 -6.2,-2.03 -20.91,0.79 -20.72,-4.31 -27.93,-5.36 -9.46,-1.38 -17.83,-4.68 -24.84,-11.42 -6.38,-6.14 -12.07,-13.25 -16.45,-21.26 l -23.87,-43.62 -30.27,-63.53 -15.84,-33.7 c -5.14,-10.94 -8.94,-22.28 -13.21,-33.73 -4.41,-11.79 -9.78,-22.08 -15.68,-33.02 -8.39,-15.61 -14.14,-32.08 -20.3,-48.9 -1.67,-4.58 -1.84,-10.92 -3.82,-14.99 -10.81,-22.16 -21.1,-43.39 -28.32,-67.22 -4.58,-15.11 -10.09,-30.24 -16.06,-44.39 -0.48,-1.15 -3.71,-2.02 -3.71,-1.12 -0.02,19.66 5,29.64 7.49,47.47 l 4.38,31.34 10.84,75.9 c 0.9,6.31 2.52,12.23 3.84,18.44 1.99,9.42 3.21,18.64 4.25,28.22 l 2.77,25.66 c 0.54,4.94 1.05,9.95 1.99,14.81 l 6.76,34.75 c 2.88,14.83 3.78,29.23 5.28,44.48 0.21,2.15 -2.24,5.98 -3.9,5.67 l -42.15,-8.09 c -6.76,-1.3 -13.64,-2.62 -19.89,-4.99 -2.69,-1.03 -5.21,-2.18 -8.05,-2.72 -15.86,-3 -32.92,-6.61 -49.89,-10.83 -0.97,-0.4 -2,-0.65 -3.07,-0.75 -0.37,-0.09 -0.73,-0.19 -1.1,-0.28 -0.04,-0.03 -0.1,-0.07 -0.17,-0.12 -0.3,-0.31 -0.58,-0.64 -0.86,-0.98 0.18,0.05 -0.69,-1.64 -0.85,-1.71 -0.33,-0.95 -0.58,-1.94 -0.75,-2.93 0.03,-0.25 -0.03,-1.46 -0.05,-2.22 0.03,-0.11 0.06,-0.27 0.1,-0.44 0.01,-0.02 0.01,-0.02 0.02,-0.04 0.03,-0.03 0.02,-0.02 0.04,-0.05 0.12,-0.11 0.09,-0.09 0.18,-0.17 0.72,-0.49 1.48,-0.92 2.26,-1.32 0.38,-0.11 2.11,-0.82 2.38,-0.91 1.18,-0.41 2.37,-0.78 3.55,-1.16 2.82,-0.91 5.56,-1.94 8.25,-3.24 2.85,-1.37 5.88,-2.6 8.23,-4.87 0.88,-0.85 1.57,-1.77 2.16,-2.73 1.79,-1.53 3.16,-3.61 3.52,-5.63 0.27,-1.52 0.46,-2.91 0.5,-4.3 0.02,-0.27 0.13,-0.46 0.13,-0.74 -0.36,-22.61 -4.08,-41.08 -3.08,-60.03 0.31,-5.93 0.62,-11.61 -0.52,-17.44 -4.8,-24.58 -8.98,-48.48 -12.25,-73.41 -2.14,-16.39 -2.71,-31.97 -2.92,-48.5 -0.31,-23.16 -7.61,-43.47 -9.71,-63.66 l -3.43,-33.07 c -1.23,-11.79 -3.09,-22.95 -5.45,-34.56 -3.72,-18.39 -6.5,-36.19 -9,-54.82 l -6.27,-46.55 c -2.13,-15.86 -14.94,-75.69 -19.9,-90.77 -0.77,-2.33 -0.22,-6.17 -0.75,-8.13 l -7.65,-28.63 c -1.37,-5.14 -4.01,-26.8 -0.77,-27.93 2.89,-1.01 19.86,5.25 24.35,6.95 9.1,3.45 17.6,6.13 26.98,8.48 12.19,3.05 24.52,6.94 27.72,21.97 l 17.73,84.85 6.57,28.2 7.73,30.06 c 3.39,13.18 7.71,25.73 10.01,39.21 l 4.06,23.81 c 1.34,7.84 4.15,15.11 7.42,22.2 2.39,12.22 5.23,24.06 10.02,35.54 l 15.63,37.38 c 2.1,5 2.35,11.75 4.83,16.38 2.24,4.19 4.92,8.05 6.33,12.32 l 6.22,18.92 c 1.97,5.98 5.25,11.39 9.23,16.25 l 13.79,35.77 c 3.8,9.87 6.74,20.28 12.14,29.35 10.32,17.35 20.62,33.79 29.33,52.1 2.74,5.76 4.42,11.67 6.5,17.72 6.51,18.95 36.94,73.17 48.13,87.72 l 9.29,12.08 14.88,23.96 c 1.14,1.84 4.92,3.6 7.32,4.64 1.65,-8.08 2.24,-15.15 1.93,-23.15 -0.5,-12.93 -1.04,-25.39 -0.72,-38.4 0.15,-6.1 1.71,-12.41 1.1,-18.36 l -2.77,-26.93 -5.01,-73.82 c -2.15,-31.82 -0.95,-27.43 -5.54,-58.99 -4.62,-31.71 -0.94,-12.23 -10.2,-42.54 -2.46,-8.08 -7.24,-13.95 -13.83,-18.16 -8.81,-5.63 -16.66,-12.03 -24.19,-19.43 -8.12,-7.98 -14.69,-14.34 -26.34,-15.91 -9.93,-3.7 -93.11,-40.5 -90.57,-48.6 1.33,-4.25 29.02,4.3 33.36,5.95 l 26.6,10.11 c 18.43,7.01 36.19,13.86 54.92,19.74 15.59,4.9 18.02,10.25 39.25,17.16 24.5,7.98 47.09,26.02 59.87,30.88 l 8.02,3.05 c 4.83,4.95 9.07,8.71 14.85,12.18 11.6,33.08 10.88,27.86 15.5,62.94 l 2.39,16.16 9.54,93.14 c 2.37,23.12 3.94,45.08 4.21,68.21 l 0.72,62.26 c 0.21,18.27 -1.66,47.68 -6.94,64.66" style="fill:#ffffff;fill-opacity:1;fill-rule:nonzero;stroke:none" transform="matrix(0.13333333,0,0,-0.13333333,0,1122.52)"></path>
    <path id="path60" d="m 3630.68,2296.73 c -0.07,0.41 -0.45,0.7 -0.86,0.63 -0.41,-0.06 -0.69,-0.43 -0.64,-0.84 0.07,-0.41 0.45,-0.7 0.86,-0.64 0.41,0.05 0.69,0.44 0.64,0.85" style="fill:#ffffff;fill-opacity:1;fill-rule:nonzero;stroke:none" transform="matrix(0.13333333,0,0,-0.13333333,0,1122.52)"></path>
    <path id="path61" d="m 4269.38,2638.98 c -16.31,-2.09 -31.65,-1.52 -46.98,0.16 l -9.52,21.36 c -3.47,7.73 -7.19,18.11 -6.84,26.13 l -4.5,5.78 c 10.26,1.5 19.5,2.29 29.64,2.18 l 20.62,-0.27 c 10.86,-0.14 21.27,1.2 31.72,4.04 10.16,2.75 20.08,4.75 30.62,6.21 7.56,1.04 15.08,2.27 22.24,4.59 l 21.59,6.95 c 9.79,3.16 21.85,7.77 25.94,0.23 l 5.58,-10.27 18.67,-40.91 c 0.51,-1.12 -0.41,-4 -1.46,-4.5 -31.73,-15.12 -32.69,-8.18 -44.22,-11.11 l -23.71,-6 c -37.16,-9.41 -43.52,-1.26 -69.39,-4.57" style="fill:#ffffff;fill-opacity:1;fill-rule:nonzero;stroke:none" transform="matrix(0.13333333,0,0,-0.13333333,0,1122.52)"></path>
    <path id="path62" d="m 3630.68,2296.73 c 0.05,-0.41 -0.23,-0.8 -0.64,-0.85 -0.41,-0.06 -0.79,0.23 -0.86,0.64 -0.05,0.41 0.23,0.78 0.64,0.84 0.41,0.07 0.79,-0.22 0.86,-0.63" style="fill:#ffffff;fill-opacity:1;fill-rule:nonzero;stroke:none" transform="matrix(0.13333333,0,0,-0.13333333,0,1122.52)"></path>
  </g>
  <g id="g62" xmlns:inkscape="http://www.inkscape.org/namespaces/inkscape" inkscape:groupmode="layer" inkscape:label="2"></g>
  <g id="g63" xmlns:inkscape="http://www.inkscape.org/namespaces/inkscape" inkscape:groupmode="layer" inkscape:label="3"></g>
</svg>